<svg width="455" height="419" viewBox="0 0 455 419" fill="none" xmlns="http://www.w3.org/2000/svg">
<path d="M21.7283 381.54C18.7614 381.54 15.969 381.06 13.3512 380.101C10.8205 379.141 8.72624 377.265 7.06826 374.472C5.41027 371.592 4.58128 367.317 4.58128 361.645V319.235C4.58128 314.697 5.4539 311.163 7.19915 308.633C9.03166 306.102 11.5623 304.357 14.791 303.397C18.0197 302.35 21.772 301.826 26.0478 301.826C30.3237 301.826 34.076 302.35 37.3047 303.397C40.6207 304.357 43.1949 306.102 45.0274 308.633C46.9472 311.163 47.9071 314.697 47.9071 319.235V330.099H33.1161V318.45C33.1161 316.355 32.8107 314.785 32.1998 313.738C31.6763 312.603 30.9345 311.861 29.9746 311.512C29.0148 311.163 27.8367 310.989 26.4405 310.989C25.1316 310.989 23.9535 311.163 22.9064 311.512C21.9465 311.861 21.1611 312.603 20.5503 313.738C20.0267 314.785 19.7649 316.355 19.7649 318.45V365.31C19.7649 367.317 20.0267 368.887 20.5503 370.022C21.1611 371.069 21.9465 371.811 22.9064 372.247C23.9535 372.596 25.1316 372.771 26.4405 372.771C28.4476 372.771 30.0619 372.16 31.2836 370.938C32.5053 369.716 33.1161 367.84 33.1161 365.31V349.864H26.8332V341.225H47.9071V380.101H36.5193L35.734 374.079C35.5594 374.341 35.3849 374.603 35.2104 374.865C35.0359 375.127 34.905 375.345 34.8177 375.519C33.9451 377.003 32.4616 378.399 30.3673 379.708C28.3603 380.93 25.4806 381.54 21.7283 381.54ZM76.7609 381.148C72.2233 381.148 68.3837 380.668 65.2423 379.708C62.1881 378.661 59.8757 376.654 58.3049 373.687C56.7342 370.633 55.9488 366.051 55.9488 359.943V330.754C55.9488 324.384 57.6505 320.02 61.0537 317.664C64.4569 315.308 69.6054 314.13 76.4991 314.13C83.3056 314.13 88.4105 315.308 91.8137 317.664C95.2169 320.02 96.9186 324.384 96.9186 330.754V348.424H70.8707V366.095C70.8707 368.713 71.2634 370.545 72.0488 371.592C72.9214 372.64 74.4485 373.163 76.63 373.163C78.6371 373.163 79.9896 372.683 80.6877 371.723C81.4731 370.676 81.8658 368.8 81.8658 366.095V355.754H96.9186V359.812C96.9186 365.92 96.1332 370.502 94.5625 373.556C92.9917 376.61 90.6793 378.661 87.6251 379.708C84.6582 380.668 81.0368 381.148 76.7609 381.148ZM70.8707 341.618H81.8658V329.968C81.8658 327.438 81.4731 325.649 80.6877 324.602C79.9896 323.555 78.5934 323.031 76.4991 323.031C74.4048 323.031 72.9214 323.555 72.0488 324.602C71.2634 325.649 70.8707 327.438 70.8707 329.968V341.618ZM104.931 380.101V315.308H117.627L118.936 322.9C119.722 320.282 121.249 318.144 123.518 316.486C125.874 314.828 128.448 313.999 131.24 313.999C135.429 313.999 138.57 314.741 140.665 316.224C142.759 317.621 144.155 319.628 144.853 322.246C145.639 324.776 146.031 327.787 146.031 331.277V380.101H131.109V332.194C131.109 331.146 131.066 330.186 130.979 329.314C130.891 328.354 130.629 327.525 130.193 326.827C129.844 326.129 129.321 325.605 128.622 325.256C127.924 324.82 126.877 324.602 125.481 324.602C124.434 324.602 123.518 324.82 122.732 325.256C121.947 325.605 121.336 326.042 120.9 326.565C120.463 327.089 120.114 327.569 119.853 328.005V380.101H104.931ZM174.548 381.148C170.01 381.148 166.17 380.668 163.029 379.708C159.975 378.661 157.662 376.654 156.092 373.687C154.521 370.633 153.736 366.051 153.736 359.943V330.754C153.736 324.384 155.437 320.02 158.84 317.664C162.244 315.308 167.392 314.13 174.286 314.13C181.092 314.13 186.197 315.308 189.6 317.664C193.004 320.02 194.705 324.384 194.705 330.754V348.424H168.657V366.095C168.657 368.713 169.05 370.545 169.836 371.592C170.708 372.64 172.235 373.163 174.417 373.163C176.424 373.163 177.776 372.683 178.474 371.723C179.26 370.676 179.653 368.8 179.653 366.095V355.754H194.705V359.812C194.705 365.92 193.92 370.502 192.349 373.556C190.778 376.61 188.466 378.661 185.412 379.708C182.445 380.668 178.824 381.148 174.548 381.148ZM168.657 341.618H179.653V329.968C179.653 327.438 179.26 325.649 178.474 324.602C177.776 323.555 176.38 323.031 174.286 323.031C172.192 323.031 170.708 323.555 169.836 324.602C169.05 325.649 168.657 327.438 168.657 329.968V341.618ZM221.697 381.017C216.287 381.017 212.055 380.362 209 379.053C206.033 377.657 203.939 375.519 202.717 372.64C201.583 369.76 201.016 366.139 201.016 361.775V356.802H215.938V365.179C215.938 367.971 216.33 369.978 217.116 371.2C217.901 372.334 219.385 372.901 221.566 372.901C223.486 372.901 224.838 372.378 225.624 371.331C226.496 370.196 226.933 368.538 226.933 366.357V361.383C226.933 359.288 226.54 357.631 225.755 356.409C224.969 355.187 223.748 354.184 222.09 353.398C220.432 352.526 218.337 351.566 215.807 350.519C213.451 349.559 211.269 348.468 209.262 347.246C207.255 346.025 205.597 344.41 204.288 342.403C203.066 340.396 202.456 337.822 202.456 334.68V330.885C202.456 325.474 203.939 321.373 206.906 318.581C209.873 315.701 215.24 314.261 223.006 314.261C228.154 314.261 232.168 314.916 235.048 316.224C237.928 317.533 239.935 319.584 241.069 322.376C242.291 325.082 242.902 328.528 242.902 332.717V337.56H228.503V330.23C228.503 327.35 228.067 325.343 227.195 324.209C226.409 322.987 225.057 322.376 223.137 322.376C220.955 322.376 219.472 322.944 218.686 324.078C217.988 325.213 217.639 326.609 217.639 328.267V333.11C217.639 335.291 218.207 337.037 219.341 338.346C220.563 339.567 222.133 340.571 224.053 341.356C225.973 342.054 228.024 342.84 230.205 343.712C232.474 344.498 234.568 345.501 236.488 346.723C238.408 347.857 239.935 349.384 241.069 351.304C242.291 353.224 242.902 355.798 242.902 359.027V362.954C242.902 366.88 242.247 370.196 240.938 372.901C239.717 375.607 237.535 377.657 234.394 379.053C231.339 380.362 227.107 381.017 221.697 381.017ZM255.355 286.904H273.68V304.313H255.355V286.904ZM256.01 314.916H273.026V380.101H256.01V314.916ZM306.701 381.017C301.291 381.017 297.059 380.362 294.004 379.053C291.038 377.657 288.943 375.519 287.722 372.64C286.587 369.76 286.02 366.139 286.02 361.775V356.802H300.942V365.179C300.942 367.971 301.335 369.978 302.12 371.2C302.905 372.334 304.389 372.901 306.57 372.901C308.49 372.901 309.843 372.378 310.628 371.331C311.501 370.196 311.937 368.538 311.937 366.357V361.383C311.937 359.288 311.544 357.631 310.759 356.409C309.974 355.187 308.752 354.184 307.094 353.398C305.436 352.526 303.342 351.566 300.811 350.519C298.455 349.559 296.273 348.468 294.266 347.246C292.259 346.025 290.601 344.41 289.292 342.403C288.071 340.396 287.46 337.822 287.46 334.68V330.885C287.46 325.474 288.943 321.373 291.91 318.581C294.877 315.701 300.244 314.261 308.01 314.261C313.159 314.261 317.173 314.916 320.052 316.224C322.932 317.533 324.939 319.584 326.073 322.376C327.295 325.082 327.906 328.528 327.906 332.717V337.56H313.508V330.23C313.508 327.35 313.071 325.343 312.199 324.209C311.413 322.987 310.061 322.376 308.141 322.376C305.959 322.376 304.476 322.944 303.691 324.078C302.993 325.213 302.643 326.609 302.643 328.267V333.11C302.643 335.291 303.211 337.037 304.345 338.346C305.567 339.567 307.137 340.571 309.057 341.356C310.977 342.054 313.028 342.84 315.209 343.712C317.478 344.498 319.572 345.501 321.492 346.723C323.412 347.857 324.939 349.384 326.073 351.304C327.295 353.224 327.906 355.798 327.906 359.027V362.954C327.906 366.88 327.251 370.196 325.943 372.901C324.721 375.607 322.539 377.657 319.398 379.053C316.344 380.362 312.111 381.017 306.701 381.017ZM356.199 380.101C356.199 377.483 356.199 374.865 356.199 372.247C356.199 369.629 356.199 367.011 356.199 364.393C356.199 359.681 356.767 355.973 357.901 353.267C359.123 350.475 360.912 348.206 363.268 346.461C365.711 344.628 368.809 342.796 372.561 340.963C375.615 339.48 378.015 337.996 379.76 336.513C381.506 335.03 382.771 333.284 383.556 331.277C384.429 329.183 384.865 326.521 384.865 323.293C384.952 320.064 384.516 317.577 383.556 315.832C382.596 314.087 380.895 313.214 378.451 313.214C376.095 313.214 374.394 314.261 373.346 316.355C372.387 318.362 371.907 321.373 371.907 325.387V330.754H356.723V321.068C356.723 314.785 358.555 310.116 362.221 307.062C365.973 303.92 371.47 302.35 378.713 302.35C384.211 302.35 388.574 303.091 391.802 304.575C395.031 306.058 397.3 308.371 398.609 311.512C400.005 314.654 400.703 318.799 400.703 323.947C400.703 330.056 399.7 334.986 397.693 338.738C395.686 342.49 392.282 345.676 387.483 348.293C385.389 349.341 383.425 350.388 381.593 351.435C379.76 352.482 378.146 353.616 376.75 354.838C375.441 356.06 374.481 357.631 373.87 359.55C373.346 360.685 372.91 361.95 372.561 363.346C372.212 364.655 372.038 366.095 372.038 367.666H400.965V380.101H356.199ZM406.946 380.101C406.946 377.483 406.946 374.865 406.946 372.247C406.946 369.629 406.946 367.011 406.946 364.393C406.946 359.681 407.513 355.973 408.648 353.267C409.87 350.475 411.658 348.206 414.015 346.461C416.458 344.628 419.556 342.796 423.308 340.963C426.362 339.48 428.762 337.996 430.507 336.513C432.252 335.03 433.518 333.284 434.303 331.277C435.176 329.183 435.612 326.521 435.612 323.293C435.699 320.064 435.263 317.577 434.303 315.832C433.343 314.087 431.642 313.214 429.198 313.214C426.842 313.214 425.14 314.261 424.093 316.355C423.133 318.362 422.653 321.373 422.653 325.387V330.754H407.47V321.068C407.47 314.785 409.302 310.116 412.967 307.062C416.72 303.92 422.217 302.35 429.46 302.35C434.957 302.35 439.321 303.091 442.549 304.575C445.778 306.058 448.047 308.371 449.356 311.512C450.752 314.654 451.45 318.799 451.45 323.947C451.45 330.056 450.447 334.986 448.44 338.738C446.433 342.49 443.029 345.676 438.23 348.293C436.136 349.341 434.172 350.388 432.34 351.435C430.507 352.482 428.893 353.616 427.497 354.838C426.188 356.06 425.228 357.631 424.617 359.55C424.093 360.685 423.657 361.95 423.308 363.346C422.959 364.655 422.784 366.095 422.784 367.666H451.712V380.101H406.946Z" fill="#AB2B86"/>
<path d="M204.789 162.434C203.914 162.841 203.07 163.235 202.26 163.617C203.006 163.215 203.852 162.82 204.789 162.434C234.294 148.727 299.882 121.275 346.01 112.194L313.052 132.53C315.156 152.397 309.079 196.621 267.941 214.572C246.749 224.311 196.183 232.663 163.46 188.159L187.535 171.564C202.26 188.159 262.097 203.82 270.045 152.865C252.309 152.865 218.659 156.721 204.789 162.434Z" fill="#AB2B86"/>
<path d="M148.5 118.506C150.931 100.181 168.992 83.1334 177.718 76.9004C166.124 89.0548 162.291 105.962 161.824 112.896L148.5 118.506Z" fill="#AB2B86"/>
<path d="M111.57 138.373C111.57 48.617 182.159 17.9972 224.699 15.1924V55.6292C168.602 55.6292 144.761 100.195 139.852 122.478L111.57 138.373Z" fill="#AB2B86"/>
<path d="M276.589 37.8657L281.965 0L288.51 37.8657L327.544 43.9429L288.51 50.955L283.134 88.8207L276.589 50.955L238.256 44.8778L276.589 37.8657Z" fill="#AB2B86"/>
<path d="M107.362 204.521C63.7936 131.408 292.016 94.898 411.924 76.4326C327.311 94.4305 232.724 128.401 201.325 143.282C123.958 179.95 119.984 218.312 132.373 232.103C126.576 227.241 111.541 211.534 107.362 204.521Z" fill="#AB2B86"/>
<path d="M327.544 135.802C316.325 257.112 182.86 246.594 156.214 195.171C146.116 202.651 144.215 209.975 144.527 212.702C251.346 297.081 333.622 200.314 327.544 135.802Z" fill="#AB2B86"/>
</svg>
