<svg xmlns="http://www.w3.org/2000/svg" xmlns:xlink="http://www.w3.org/1999/xlink" xmlns:xodm="http://www.corel.com/coreldraw/odm/2003" xml:space="preserve" width="5.54898in" height="5.54416in" version="1.1" style="shape-rendering:geometricPrecision; text-rendering:geometricPrecision; image-rendering:optimizeQuality; fill-rule:evenodd; clip-rule:evenodd" viewBox="0 0 5548.98 5544.17">
 <defs>
  <style type="text/css">
   <![CDATA[
    .fil0 {fill:#15A5E4}
   ]]>
  </style>
 </defs>
 <g id="Layer_x0020_1">
  <metadata id="CorelCorpID_0Corel-Layer"/>
  <g id="_1863858263008">
   <g>
    <path className="fil0" d="M856.82 3668.54c205.53,-27.17 370.61,128.62 395.01,300.67 30.05,211.9 -125.85,384.05 -301.82,405.98 -475.69,59.28 -565.81,-644.17 -93.19,-706.65zm-673.89 1871.65c5.42,-160.37 1.26,-327.03 1.26,-488.08 0,-160.46 -25.21,-301.44 68.03,-404 100.15,-110.17 218.65,-90.65 393.64,-90.64l719.51 0.3c118.46,1.29 117.11,-8.66 176.33,-69.24 80.41,-82.23 156.06,-157.54 237.78,-238.42 69.43,-68.72 181.94,-147.53 190.3,-294.52 5.46,-96.02 -18.83,-404.5 9.04,-469.27l162.04 0.22c20.41,59.26 8.13,282.11 8.14,359.7 0.01,130.11 14.5,206.09 -52.85,305.43 -39.56,58.36 -422.09,579.87 -469.65,604.32 -63.56,32.68 -212.07,55.05 -256.33,98.23 -45.92,44.79 -25.06,252.43 -25.06,329.61 0,112.29 -6.21,243.57 1.44,353.48 53.42,6.74 125.2,12.16 176.77,-3.87l1.94 -555.89c221.06,-63.19 231.34,-75.72 346.68,-229.46 77.48,-103.28 164.05,-220.91 243.39,-324.14 71.49,-93.02 187.22,-220.56 206.77,-368.35 17.33,-130.93 9.59,-423.17 4.45,-563.84 -3.48,-95.07 -52.27,-149.84 -118.54,-173.73 -44.8,-16.15 -217.78,-16.72 -274.01,-6.56 -176.3,31.87 -142.43,239.82 -142.43,423.28 0,312.03 8.3,247.57 -157.46,410.91 -43.6,42.96 -100.3,100.07 -141.5,141.75 -53.7,54.32 -65.4,97.65 -182.56,89.65 -1.08,-30.93 10.2,-26.42 32.36,-56.97 228.77,-315.31 10.61,-832.37 -443.21,-833.24 -398.22,-0.76 -657.85,421.89 -478.3,776.8 17.69,34.98 66.81,89.25 66.65,112.82 -145.39,13.28 -212.26,20.48 -313.69,101.76 -73.21,58.67 -127.51,134.96 -156.72,250.19 -22.91,90.32 -19.07,687.08 -10.25,811.86l176.03 -0.12z"/>
    <path className="fil0" d="M4298.16 4089.45c-41.17,-214.68 110.43,-385.8 287.56,-418.08 461.18,-84.04 591.17,611.5 129.93,700.41 -213.41,41.13 -384.35,-109.52 -417.48,-282.33zm-275.36 887.28l1.8 555.9c49.95,18.08 124.57,10.85 177.2,5.37 3.84,-116.39 0.79,-237.26 0.79,-354.16 0,-82.79 20.15,-282.64 -25.43,-329.3 -43.2,-44.23 -191.32,-65.46 -255.76,-98.26 -45.23,-23.02 -416.49,-524.88 -470.62,-603.97 -64.52,-94.27 -52.45,-173.19 -52.44,-306.06 0,-77.18 -12.13,-300.74 8.54,-359.57l162.02 -0.14c27.05,63.94 5.7,377.26 9.08,471.73 5,139.72 121.51,223.16 190.2,291.91 81.76,81.83 157.2,155.51 238.02,238.24 60.3,61.72 55.76,70.62 176.12,69.47l719.52 -0.42c170.94,-0.02 303.46,-15.37 394.54,89.96 91.02,105.27 67.56,241.64 67.56,404.68 0,151.33 -10.15,341.9 2.29,488.43l175.33 -0.04c4.52,-170.97 18.98,-677.22 -11.34,-811.88 -25.84,-114.76 -90.22,-200.95 -162.03,-254.48 -111.83,-83.37 -157.74,-79.96 -313.66,-99.52 28.67,-61.5 95.4,-100.03 122.48,-264.22 98.74,-598.58 -734.91,-881.63 -1010.45,-318.91 -42.91,87.65 -65.38,198.67 -45.52,319.41 8.95,54.38 25.76,102.53 46.8,145.26 19.97,40.57 70.22,90.69 69.48,120.79 -116.69,9.46 -129.01,-36.08 -181.83,-89.84 -307.2,-312.71 -299.29,-207.63 -299.3,-552.34 -0,-184 35.18,-388.1 -143.98,-422.92 -52.61,-10.22 -230.06,-8.76 -272.98,6.16 -66.5,23.11 -114.77,80.68 -118.39,173.21 -5.5,140.32 -12.59,432.36 4.59,563.52 19.43,148.28 136.79,278.59 207.19,369.04 79.2,101.76 166.37,221.77 243.16,324.34 115.65,154.46 129.98,170.01 347,228.59z"/>
    <path className="fil0" d="M4288.15 2387.06c-31.8,325.7 -320.27,598.01 -693.9,559.2 -317.9,-33.03 -589.98,-325.52 -547.59,-701.3 34.96,-309.99 330.47,-582.67 697.35,-539.96 308.73,35.93 579.45,320.45 544.14,682.06zm-754.28 -852.72c-112.32,36.1 -151.54,23.57 -288.87,107.59 -454.28,277.95 -536.81,944.91 -71.08,1317.69 581.88,465.76 1419.58,-79.06 1286.28,-772.04 -42.27,-219.74 -163.06,-387.6 -301.31,-496.46 -123.19,-97 -410.86,-225.61 -625.03,-156.78z"/>
    <path className="fil0" d="M1358.45 2156.82c75.31,-32.63 248.77,-20.07 302.39,-72.05 56.11,-54.39 76.46,-194.3 130.09,-246.93 43.96,32.03 81.39,196 131.2,245.95 52.76,52.91 222.43,44.74 302.99,69.92 -47.31,68.67 -139.57,132.22 -191.2,202.7 -46.16,63.02 22.57,231.62 19.57,333.19 -45.18,-20.94 -214.54,-129.28 -262.37,-129.09 -50.22,0.2 -210.35,107.9 -262.25,128.08 -4.63,-94.84 67.26,-263.86 20.05,-333.11 -37.59,-55.15 -140.73,-148.37 -190.47,-198.66zm383.28 -620.95c-34.82,24.39 -107.48,201.9 -132.36,255.09 -74.37,159 -30.01,148.01 -223.87,173.17 -158.74,20.6 -435.37,35.02 -247.12,224.3 36.29,36.48 63.09,66.95 99.27,103.37 33.12,33.33 66.04,63.44 97.74,94.88 57.43,56.98 47.52,59.61 31.36,151.17 -20.88,118.32 -130.02,474.01 75.92,404.07l255.91 -140.48c124.88,-67.71 83.42,-62.07 380.97,108.22 336.94,192.84 86.17,-378.1 126.31,-473.41 16.92,-40.17 263.14,-257.71 286.13,-300.97 90.7,-170.76 -245.87,-165 -393.86,-185.87 -84.43,-11.91 -88.06,-82.72 -160.24,-235.77 -29.63,-62.83 -86.8,-254.34 -196.13,-177.75z"/>
    <path className="fil0" d="M4786.55 812.74c167.3,-27.99 130.51,-79.36 130.52,-249.66 0,-63.33 -12.7,-339.33 8.2,-370 13.33,-11.39 2.82,-6.87 28.07,-10.65l135.46 1.24c18.22,55.1 7.07,303.15 7.03,379.4 -0.02,43.65 -5.91,150.84 6,186.46 21.96,65.76 66.46,41.85 124.68,66.87l-24.37 26.98c-46.78,46.34 -162.65,169.24 -198.97,188.93 -30.54,-22.85 -204.35,-189.92 -216.62,-219.58zm-47.06 -188.52c-103.85,16.81 -264.92,-33.53 -267.36,90.91 -1.09,55.14 41.65,83.95 67.5,108.91 33.43,32.3 58.57,57.84 91.5,90.82 55.12,55.2 312.12,336.57 372.13,337.94 60.4,1.38 132.9,-95.45 196.41,-158.82 50.93,-50.82 337.75,-316.65 341.01,-369.33 7.97,-128.86 -168.8,-94.16 -267.14,-96.69 11.07,-715.2 27.17,-624.21 -260.23,-624.19 -244.22,0.02 -276.75,-31.11 -274.57,174.23 1.57,148.52 -2.23,297.95 0.76,446.22z"/>
    <path className="fil0" d="M319.39 812.46c63.07,-9.21 107.43,-7.59 126.72,-64.43 22.43,-66.07 -15.77,-480.58 13,-565.63l163.2 -0.35c21.26,61.85 8.34,299.66 8.35,381.02 0.01,163.87 -34.72,228.06 131.04,248.95 -6.04,23.87 -190.96,201.18 -217.19,220.25 -34.66,-19.43 -88.96,-79.68 -117.48,-108.48l-107.66 -111.34zm-46.64 -185.92c-98.22,7.85 -262.71,-31.38 -266.3,88.69 -1.91,63.94 280.42,317.56 336.7,373.52 239.28,237.93 152.24,245.22 568.55,-168.69 35.14,-34.94 160.04,-137.69 163.44,-195.08 8.07,-136.23 -159.96,-84.06 -267.01,-100.82 3.78,-145.23 0.78,-290.72 1.52,-436.02 1.15,-226.82 -52.88,-184.34 -265.11,-184.43 -46.94,-0.02 -181.48,-6.06 -217.34,8.28 -63.99,25.57 -53.93,94.93 -53.58,165.98 0.74,147.78 3.49,301.36 -0.86,448.58z"/>
    <path className="fil0" d="M3752.17 2858.35c21.8,-122.84 -36.74,-69.8 66.45,-136.09 36.77,-23.62 67.66,-57.74 89.26,-103.35 53.23,-112.41 14.44,-237.36 -49.2,-303.46 -87.7,-91.08 -239.47,-60.13 -270.13,-126.28 -47.89,-103.36 96.52,-216.19 178.37,-42.55l167 -0.81c-4.8,-184.23 -138.59,-222.01 -177.13,-255.25l-2.13 -99.78c-44.96,-0.44 -137.69,-8.7 -176.11,7.69l-2.54 92.08c-44.21,37.97 -75.45,40.39 -111.06,83.01 -111.05,132.96 -73.05,300.97 43.44,388.52 91.49,68.77 233.04,27.21 246.35,127.65 7.38,55.66 -27.25,97.9 -79.5,101.8 -73.82,5.51 -76.74,-32.66 -100.76,-85.05l-175.28 -0.35c9.09,173.4 116.14,204.65 177.39,255.87 3.7,64.75 -20.63,95.07 37.19,100.29 26.9,2.43 111.24,-0.15 138.4,-3.93z"/>
    <path className="fil0" d="M5007.61 5539.6l176.57 -3.52 -0.11 -707.03c-49.76,-6.59 -130.07,-10.98 -177.42,3.82l0.96 706.73z"/>
    <path className="fil0" d="M363.04 5538.11c55.09,4.89 125.55,11.77 176.42,-4.16l1.4 -702.2 -176.55 -5.91 -1.26 712.27z"/>
    <path className="fil0" d="M1889.75 627.69c-17.84,43.47 -8.85,131.63 -7.35,178.32 52.14,1.84 128.45,9.95 175.78,-6.08 2.76,-23.61 4.37,-111.82 2.48,-136.18 -4.28,-55.13 -47.74,-33.94 -170.91,-36.06z"/>
    <path className="fil0" d="M544.14 1789.84l174.06 0.1c3.86,-55.41 11.98,-127.68 -5.42,-178.22l-163.23 0.27c-17.61,50.46 -10.37,123.82 -5.41,177.85z"/>
    <path className="fil0" d="M3853.92 1073.96l161.38 0.93c20.45,-48.88 10.83,-124.73 7.82,-178.45l-175.59 0.31c-3.38,52.56 -10.37,130.05 6.4,177.2z"/>
    <path className="fil0" d="M3220 805.98l178.15 0.07c0.18,-206.58 34.25,-177.09 -107.51,-177.17 -86.76,-0.06 -70.15,-32.85 -70.64,177.09z"/>
    <path className="fil0" d="M5185.48 1878.93c51.23,1.21 135.86,10.33 171.93,-8.88 12.66,-28.37 12.5,-133.26 0.01,-161.78 -35.3,-16.85 -120.52,-10.62 -168.36,-6.5l-3.59 177.16z"/>
    <path className="fil0" d="M4832.09 2323.54l171.83 2.52 1.34 -180.35 -170.19 2.09c-14.65,43.56 -12.96,131.14 -2.98,175.74z"/>
    <polygon className="fil0" points="95.56,2592.14 272.93,2592.45 273.63,2415.43 96.84,2414.48 "/>
    <path className="fil0" d="M2507.18 1432.43l171.73 -0.96c12.01,-45.18 11.7,-131.58 0.38,-175l-167.32 -2.59 -4.79 178.56z"/>
    <polygon className="fil0" points="2685.04,266.28 2862.44,271.42 2863.5,96.91 2685.12,94.73 "/>
   </g>
  </g>
 </g>
</svg>