<svg width="800" height="800" viewBox="0 0 800 800" fill="none" xmlns="http://www.w3.org/2000/svg">
<path d="M248.499 7.90034C243.199 11.1003 231.299 24.6003 226.499 32.7003C220.999 42.1003 218.599 48.4003 215.299 61.4003C213.199 70.0003 212.999 72.0003 213.999 75.8003C215.199 80.7003 218.399 87.5003 222.999 94.7003C227.799 102.2 229.899 109.1 231.999 124.2C234.899 144.7 238.999 152.3 257.399 171.7C262.199 176.8 265.899 181.4 265.499 182C263.899 184.6 258.699 182 242.899 170.4C232.899 163.1 229.499 161.8 225.999 164C221.799 166.7 226.699 180.5 234.799 188.7C241.199 195.1 248.699 198.3 268.199 202.9C277.499 205.2 287.299 208.1 290.099 209.5C297.299 213.2 303.399 219.2 305.999 225.2C308.799 231.6 308.999 243 306.599 251.3C305.099 256.6 304.499 257.3 299.899 259.8C297.099 261.3 290.199 265.5 284.399 269.2C276.999 274.1 273.099 276 270.699 276C266.199 276 259.399 272.5 244.799 262.7C230.599 253.2 226.699 251.9 207.999 249.9C196.599 248.8 187.599 246.6 177.399 242.5C173.899 241.1 165.899 238.6 159.699 237C149.799 234.4 146.899 234 134.499 234C110.399 234.1 102.799 235.9 100.599 242.3C99.799 244.5 100.899 247.3 107.899 261.3C112.499 270.3 118.999 281.5 122.399 286.2C132.699 300.6 151.799 319.6 164.599 328.1C174.899 335.1 199.899 348.2 213.499 353.8C231.999 361.4 229.999 361.9 229.999 349.5C229.999 341 230.399 338.2 231.899 335.1C234.299 330.5 239.899 326.7 247.599 324.4C250.899 323.5 253.699 322.6 253.899 322.4C254.199 322.2 252.499 320.4 250.299 318.5C247.399 316 244.699 311.9 240.499 303.3C237.299 296.8 233.999 290.7 233.099 289.6C231.999 288.3 233.399 288.8 237.799 291.1C245.099 294.9 256.699 305.2 259.399 310.2C261.199 313.5 261.199 313.7 259.099 317.8C256.799 322.4 256.699 322.4 262.499 321C264.699 320.5 271.899 319.1 278.499 318C294.399 315.2 293.999 315.4 289.099 312.2C286.199 310.3 285.199 309.1 285.699 308C285.999 307.2 287.599 302.7 289.199 298C290.799 293.3 293.199 287.7 294.499 285.4C298.199 279.1 308.199 271.5 316.999 268.3C321.099 266.8 329.199 263.2 334.899 260.3C340.599 257.4 346.499 255 347.899 255C351.899 255 359.699 257.4 367.499 261C376.099 264.9 377.999 266.6 377.999 269.9C377.999 271.4 378.799 273 379.999 273.8C381.799 274.9 381.999 275.8 381.499 281.5C381.299 285.1 381.499 288.2 381.999 288.5C383.499 289.4 383.199 293.6 381.499 295C380.699 295.7 380.299 296.7 380.699 297.4C381.099 298 381.699 300.3 381.999 302.5L382.499 306.5H399.999H417.499L417.999 302.5C418.299 300.3 418.899 298 419.299 297.4C419.699 296.7 419.299 295.7 418.499 295C416.899 293.6 416.499 289.4 417.899 288.6C418.399 288.3 418.599 285.1 418.399 281.5C418.099 275.9 418.299 274.8 419.999 273.8C421.199 273 421.999 271.4 421.999 269.9C421.999 266.6 423.899 264.9 432.499 261C440.299 257.4 448.099 255 452.099 255C453.499 255 459.399 257.4 465.099 260.3C470.799 263.2 478.899 266.8 482.999 268.3C491.799 271.5 501.799 279.1 505.499 285.4C506.799 287.7 509.199 293.3 510.799 298C512.399 302.7 513.999 307.2 514.299 308C514.799 309.1 513.799 310.3 510.899 312.2C505.999 315.4 505.599 315.2 521.499 318C528.099 319.1 535.299 320.5 537.499 321C543.299 322.4 543.199 322.4 540.899 317.8C538.799 313.7 538.799 313.5 540.599 310.2C543.299 305.2 554.899 294.9 562.199 291.1C566.599 288.8 567.999 288.3 566.899 289.6C565.999 290.7 562.699 296.8 559.499 303.3C555.299 311.9 552.599 316 549.699 318.5C547.499 320.4 545.799 322.2 546.099 322.4C546.299 322.6 549.199 323.5 552.399 324.5C555.699 325.4 560.299 327.5 562.599 329C568.699 333.3 569.999 336.8 569.999 349.5C569.999 362 568.099 361.5 586.499 353.8C599.999 348.2 625.099 335.1 635.199 328.3C643.299 322.9 657.299 310.2 666.999 299.5C676.499 289.1 683.799 277.9 692.899 259.7C699.199 247.1 700.199 244.4 699.399 242.3C697.199 235.9 689.599 234.1 665.499 234C653.099 234 650.199 234.4 640.299 237C634.099 238.6 626.099 241.1 622.599 242.5C612.399 246.6 603.399 248.8 591.999 249.9C573.299 251.9 569.399 253.2 555.199 262.7C540.599 272.5 533.799 276 529.299 276C526.999 276 522.999 274 515.599 269.2C509.899 265.5 502.899 261.3 500.099 259.8C495.499 257.3 494.899 256.6 493.399 251.3C490.999 243.1 491.299 231.5 494.099 225.1C496.599 219.2 502.699 213.2 509.899 209.5C512.699 208.1 522.499 205.2 531.799 202.9C551.299 198.3 558.799 195.1 565.199 188.7C573.299 180.5 578.199 166.7 573.999 164C570.499 161.8 567.099 163.1 557.099 170.4C541.299 182 536.099 184.6 534.499 182C534.099 181.4 537.799 176.8 542.599 171.7C560.999 152.3 565.099 144.7 567.999 124.2C570.099 109.1 572.199 102.2 576.999 94.7003C581.499 87.5003 584.799 80.7003 585.999 75.9003C587.899 68.2003 582.199 48.0003 573.899 33.3003C568.799 24.2003 553.099 7.50034 548.799 6.40034C542.799 5.00034 536.999 8.70034 536.999 13.9003C536.999 17.7003 538.499 21.1003 544.399 30.0003C547.099 34.1003 550.299 39.1003 551.599 41.0003C557.399 50.0003 564.399 68.0003 562.599 69.7003C561.799 70.6003 561.299 70.1003 552.599 58.1003C536.399 35.8003 504.999 21.1003 504.999 35.9003C504.999 37.8003 506.499 40.0003 510.599 44.0003C533.899 66.6003 545.399 94.3003 542.099 119.2C540.199 133.1 537.899 133.4 531.299 120.8C525.799 110 516.599 97.4003 511.099 93.1003C506.599 89.5003 501.299 89.0003 498.699 91.8003C496.299 94.5003 496.599 97.0003 500.099 102.5C509.899 117.9 513.599 129.3 512.699 141.1C511.399 158.2 502.499 171.2 491.199 172.7C484.999 173.5 480.799 171 475.899 163.8C469.799 154.6 458.099 140.1 455.999 139C453.499 137.7 448.999 137.7 445.099 139.1C437.999 141.6 436.899 151.9 442.599 163.3C444.599 167.2 447.799 172.8 449.599 175.7C455.199 184.5 456.999 188.8 457.599 194.7C458.199 200.4 458.099 200.7 449.599 217.2C444.299 227.3 440.199 236.7 439.099 241.1L437.299 248.3L423.399 253.9C409.899 259.3 409.199 259.5 399.999 259.5C390.799 259.5 390.099 259.3 376.599 253.9L362.699 248.3L360.899 241.1C359.799 236.7 355.699 227.3 350.399 217.2C341.899 200.7 341.799 200.4 342.399 194.7C342.999 188.8 344.799 184.5 350.399 175.7C360.499 159.8 363.299 150.3 359.599 143.3C357.299 138.8 348.799 136.4 343.999 139C341.799 140.2 329.599 155.4 324.599 163.2C320.299 170 317.499 172.1 311.699 172.7C299.699 174 288.799 159.8 287.299 141.1C286.399 129.3 290.099 117.9 299.899 102.5C303.399 96.9003 303.799 94.0003 301.199 91.7003C298.299 89.0003 293.299 89.6003 288.899 93.1003C283.399 97.4003 274.199 110 268.699 120.8C262.099 133.5 259.699 133.1 257.899 118.8C254.799 93.6003 266.199 66.6003 289.399 44.0003C295.399 38.2003 296.499 34.7003 293.399 31.6003C286.599 24.8003 260.299 40.0003 246.999 58.6003C238.899 69.8003 238.199 70.6003 237.399 69.7003C236.299 68.6003 238.599 60.7003 242.199 53.0003C245.299 46.4003 254.699 30.5003 258.199 26.0003C262.199 20.9003 263.899 14.5003 262.399 10.5003C261.599 8.50034 256.799 6.00034 253.799 6.00034C252.499 6.00034 250.199 6.80034 248.499 7.90034ZM229.699 56.2003C229.399 57.0003 229.099 56.7003 229.099 55.6003C228.999 54.5003 229.299 53.9003 229.599 54.3003C229.899 54.6003 229.999 55.5003 229.699 56.2003ZM570.699 56.2003C570.399 57.0003 570.099 56.7003 570.099 55.6003C569.999 54.5003 570.299 53.9003 570.599 54.3003C570.899 54.6003 570.999 55.5003 570.699 56.2003ZM225.599 62.2003C224.999 64.5003 224.399 65.6003 224.199 64.6003C223.699 62.3003 224.799 58.0003 225.899 58.0003C226.299 58.0003 226.199 59.9003 225.599 62.2003ZM575.899 63.5003C575.799 66.4003 575.799 66.4003 574.999 64.0003C574.599 62.6003 574.199 60.6003 574.099 59.5003C573.999 57.9003 574.199 57.8003 574.999 59.0003C575.499 59.8003 575.899 61.8003 575.899 63.5003ZM229.499 69.9003C229.799 70.4003 229.599 71.1003 228.999 71.5003C228.499 71.8003 227.999 71.4003 227.999 70.6003C227.999 68.8003 228.599 68.5003 229.499 69.9003ZM571.999 70.6003C571.999 71.4003 571.499 71.8003 570.999 71.5003C570.399 71.1003 570.199 70.4003 570.499 69.9003C571.399 68.5003 571.999 68.8003 571.999 70.6003ZM260.499 71.0003C261.799 73.1003 259.999 75.8003 257.499 75.6003C256.099 75.6003 254.999 75.4003 254.999 75.3003C254.999 75.2003 255.499 73.9003 256.199 72.5003C257.299 69.9003 259.399 69.2003 260.499 71.0003ZM543.799 72.5003C544.499 73.9003 544.999 75.2003 544.999 75.3003C544.999 75.4003 543.899 75.6003 542.499 75.6003C540.899 75.7003 539.899 75.1003 539.499 73.9003C538.099 69.7003 541.999 68.5003 543.799 72.5003ZM243.699 92.2003C243.399 92.9003 243.199 92.4003 243.199 91.0003C243.199 89.6003 243.399 89.1003 243.699 89.7003C243.899 90.4003 243.899 91.6003 243.699 92.2003ZM556.699 92.2003C556.399 92.9003 556.199 92.4003 556.199 91.0003C556.199 89.6003 556.399 89.1003 556.699 89.7003C556.899 90.4003 556.899 91.6003 556.699 92.2003ZM242.699 99.7003C242.399 100.7 242.199 100.1 242.199 98.5003C242.199 96.8003 242.399 96.1003 242.699 96.7003C242.899 97.4003 242.899 98.8003 242.699 99.7003ZM557.699 100.7C557.399 101.7 557.199 100.9 557.199 99.0003C557.199 97.1003 557.399 96.3003 557.699 97.2003C557.899 98.2003 557.899 99.8003 557.699 100.7ZM243.699 109.7C243.499 111.3 243.299 110.2 243.299 107.5C243.299 104.7 243.499 103.5 243.699 104.7C243.899 106 243.899 108.2 243.699 109.7ZM556.699 109.7C556.499 111.3 556.299 110.2 556.299 107.5C556.299 104.7 556.499 103.5 556.699 104.7C556.899 106 556.899 108.2 556.699 109.7ZM239.999 118C241.699 129.2 243.799 136 245.499 136C246.399 136 246.999 135.1 246.999 133.9C246.999 132.8 247.699 131.2 248.399 130.4C249.699 129.1 249.999 129.4 250.899 132.7C252.199 137.4 252.299 142 250.999 144C249.999 145.6 249.799 145.5 248.199 141.7C247.599 140.2 246.399 139 245.599 139C244.899 139 243.699 137.5 242.999 135.7C242.299 134 241.399 131.6 240.899 130.5C239.399 127.2 237.999 118.1 238.099 112.6C238.199 107 238.299 107.2 239.999 118ZM560.999 123.4C560.399 126.6 559.499 130 558.999 130.9C558.499 131.8 557.599 134 556.999 135.7C556.299 137.5 555.099 139 554.399 139C553.599 139 552.399 140.2 551.799 141.7C550.199 145.5 549.999 145.6 548.999 144C547.699 142 547.799 137.4 549.099 132.7C549.999 129.4 550.299 129.1 551.599 130.4C552.299 131.2 552.999 132.8 552.999 133.9C552.999 137.2 555.699 136.4 556.899 132.7C558.199 128.7 560.899 114.6 561.199 110.5C561.299 108.8 561.499 109.7 561.799 112.5C561.999 115.2 561.599 120.1 560.999 123.4ZM249.699 117.2C249.399 117.9 249.199 117.4 249.199 116C249.199 114.6 249.399 114.1 249.699 114.7C249.899 115.4 249.899 116.6 249.699 117.2ZM550.699 117.2C550.399 117.9 550.199 117.4 550.199 116C550.199 114.6 550.399 114.1 550.699 114.7C550.899 115.4 550.899 116.6 550.699 117.2ZM249.699 124.2C249.399 125 249.099 124.7 249.099 123.6C248.999 122.5 249.299 121.9 249.599 122.3C249.899 122.6 249.999 123.5 249.699 124.2ZM550.699 124.2C550.399 125 550.099 124.7 550.099 123.6C549.999 122.5 550.299 121.9 550.599 122.3C550.899 122.6 550.999 123.5 550.699 124.2ZM354.999 147.5C354.299 148.3 353.299 148.7 352.799 148.4C352.199 148 352.299 147.4 353.099 146.9C355.299 145.5 356.399 145.9 354.999 147.5ZM446.899 146.9C447.699 147.4 447.799 148 447.199 148.4C446.699 148.7 445.699 148.3 444.999 147.5C443.599 145.9 444.699 145.5 446.899 146.9ZM280.899 159C280.899 160 280.599 159.8 279.999 158.5C278.799 155.8 278.799 154.2 279.999 156C280.499 156.8 280.899 158.2 280.899 159ZM520.099 158.1C519.599 159.4 519.099 160 519.099 159.3C518.999 157.8 520.099 154.8 520.599 155.3C520.899 155.5 520.599 156.8 520.099 158.1ZM300.799 174.6C304.699 177.1 306.099 177.4 312.299 177.3C316.999 177.2 320.299 177.6 321.699 178.5C322.899 179.3 326.199 179.9 329.299 179.9C334.599 179.8 334.799 179.7 336.999 175.8C339.899 170.7 340.799 171.6 338.099 176.9C335.499 181.9 335.499 183 337.999 183C339.099 183 339.999 182.5 339.999 181.8C339.999 181.2 340.299 180.9 340.599 181.2C340.899 181.5 340.199 183.7 338.999 186.1C336.799 190.2 336.799 190.5 338.399 199C340.299 209.6 340.299 209 338.599 209C335.799 209 335.999 210.9 339.499 217.3C344.399 226.3 343.899 226.5 338.099 217.9C331.799 208.3 326.499 203.2 324.399 204.5C321.499 206.4 310.099 194.1 296.499 174.5C293.499 170.2 292.599 168.3 294.099 169.6C295.399 170.8 298.499 173 300.799 174.6ZM503.399 174.7C492.299 190.4 490.399 192.8 483.999 199C478.599 204.3 476.999 205.4 475.699 204.6C473.499 203.2 468.199 208.2 461.899 217.9C456.099 226.5 455.599 226.3 460.499 217.3C463.999 210.9 464.199 209 461.399 209C459.699 209 459.699 209.6 461.599 199C463.099 191 463.099 190 461.599 187.2C459.599 183.3 459.599 183 461.999 183C464.499 183 464.499 181.9 461.899 176.9C459.199 171.6 460.099 170.7 462.999 175.8C465.199 179.7 465.399 179.8 470.699 179.9C473.799 179.9 477.099 179.3 478.299 178.5C479.699 177.7 483.199 177.2 487.699 177.2C494.099 177.3 495.399 176.9 499.899 174.1C502.599 172.3 505.399 170.2 505.999 169.4C506.699 168.7 507.499 168 507.699 168C507.999 168 505.999 171 503.399 174.7ZM125.999 249.6C130.699 251.4 141.199 254.2 149.399 256C165.699 259.4 168.999 260.5 168.999 261.9C168.999 263.9 167.199 263.8 152.799 261C136.999 257.9 125.099 253.5 117.699 247.9C115.399 246.2 114.399 245.1 115.499 245.5C116.599 245.9 121.299 247.8 125.999 249.6ZM682.199 248.1C674.799 253.6 662.799 258 647.199 261C633.199 263.7 628.899 263.7 631.599 261C632.199 260.4 640.599 258.2 650.399 256C660.099 253.8 671.799 250.5 676.299 248.6C686.599 244.4 687.399 244.3 682.199 248.1ZM123.499 272.2C137.099 294.8 149.799 307.9 172.499 323C178.599 327 184.699 331.1 186.099 332C192.299 336.3 206.199 343.1 214.699 346C219.799 347.8 224.499 349.9 225.099 350.6C226.699 352.5 225.399 352.4 217.399 349.6C201.299 344 183.499 335 165.999 323.5C155.199 316.4 136.899 297.7 128.899 285.5C121.699 274.5 112.999 259.5 112.999 258.3C113.099 256.8 118.599 264 123.499 272.2ZM682.399 267.2C671.999 285.4 664.599 295.4 652.999 307.1C635.099 324.9 609.899 340.2 582.599 349.6C574.599 352.4 573.299 352.5 574.899 350.6C575.499 349.9 580.199 347.8 585.299 346C593.799 343.1 607.699 336.3 613.899 332C615.299 331.1 621.499 327 627.499 323C650.199 308 662.599 295.1 676.299 272.5C685.899 256.8 690.799 252.4 682.399 267.2Z" fill="#BA5499"/>
<path d="M367.1 313.1C334.1 314.6 297.4 319.1 265.2 325.5C246.2 329.4 243.7 330.3 239.2 335.4C236.5 338.5 236.1 339.8 235.5 347.7C234.4 359.9 235.6 449.9 236.8 453.1C237.4 454.5 239 457 240.5 458.8L243.2 462H288.3H333.5L338.6 459.6C341.4 458.3 347.7 453.6 352.6 449.1C371.5 431.8 382.1 426.8 400 426.8C417.9 426.8 428.5 431.8 447.4 449.1C452.3 453.6 458.6 458.3 461.4 459.6L466.5 462H511.7H556.8L559.5 458.8C561 457 562.6 454.5 563.2 453.1C564.4 449.9 565.6 360 564.5 347.7C563.9 339.8 563.5 338.5 560.8 335.4C556.2 330.2 553.5 329.2 534.7 325.5C479.6 314.6 423.9 310.5 367.1 313.1ZM340 355.2V367.5H345.7C350.8 367.5 351.5 367.7 351.5 369.5C351.5 371.3 350.8 371.5 344 371.5H336.5L336.2 358.6C335.9 344.6 336.1 343 338.5 343C339.8 343 340 344.9 340 355.2ZM381.8 345.2C382 346.1 381.3 347.1 380.1 347.5C376.5 348.6 377.7 351.6 382.9 354.9C385.5 356.6 388.2 359 388.8 360.3C389.8 362.3 389.9 362.1 389.9 358.5C390 353.6 391.2 351.5 393.4 352.3C394.8 352.9 395 354.4 394.8 362.2C394.6 368.7 394.1 371.5 393.2 371.8C392.5 372 391.6 371.3 391.3 370.1C390.6 367.5 390.5 367.5 388 370C384.3 373.7 374 371.5 374 367C374 364.3 375.1 363.9 377.6 365.9C380 367.8 383.4 367.7 384.6 365.8C385.9 363.8 383.9 360.4 380.5 358.5C373 354.5 370.9 348.8 375.7 345C378.7 342.7 381.3 342.7 381.8 345.2ZM389.5 346.1C389.9 346.6 389.9 347.8 389.6 348.6C389.1 349.9 388.6 349.9 386 348.3C382.9 346.5 382.1 344.5 384.3 343.7C385.7 343.2 388.6 344.5 389.5 346.1ZM462.3 357.1C466.5 370.4 466.8 372.3 464.3 371.8C463.2 371.6 461.9 369.7 461 367.2C460 364.4 459.1 363.1 458.2 363.5C457.4 363.8 455.7 364 454.4 364C452.5 364 451.6 364.9 450.4 368C448.6 372.3 446 373.4 446 369.7C446 366.6 449.7 354.1 451.1 352.4C453 350.1 454.2 351.9 453.5 356C452.9 359.6 453 359.8 455.8 360.2L458.8 360.6L457.3 355.6C456.5 352.9 455.4 349.6 454.9 348.2C454.3 346.5 454.3 345.3 455.1 344.3C457 342 458.3 344.3 462.3 357.1ZM368.4 356.2C372.4 369.6 372.7 372 370.6 372C369 372 368 369.7 364 356.6C360.5 345.1 360.4 344 362.9 344C364.4 344 365.4 346.3 368.4 356.2ZM397.5 349.1C399.6 351.9 401.6 353.8 402 353.3C402.3 352.9 404.1 350.6 405.9 348.2C409.2 343.9 412 342.7 412 345.6C412 347.6 402.9 360 401.4 360C399.7 360 390.8 347.1 391.4 345.5C392.3 343 393.7 343.8 397.5 349.1ZM417 357.4C417 366.7 416.6 371.1 415.8 371.6C415.1 372 414.2 371.6 413.6 370.8C412.7 369.3 412.5 369.3 411.3 370.8C409.2 373.6 408 370.5 408 361.9C408 353.9 409.4 350.8 411.8 353.2C412.7 354.1 413 353.2 413 349.2C413 344.7 413.3 344 415 344C416.9 344 417 344.7 417 357.4ZM428.5 346C428.5 347.1 427.1 347.6 423.3 347.8C418.5 348.1 418 347.9 418 346C418 344.1 418.5 343.9 423.3 344.2C427.1 344.4 428.5 344.9 428.5 346ZM448 346C448 347.8 447.3 348 439.5 348C431.7 348 431 347.8 431 346C431 344.2 431.7 344 439.5 344C447.3 344 448 344.2 448 346ZM441.8 359.9C442.1 370.6 441.6 372.5 438.7 371.4C437.3 370.9 437 369.2 437 360.6C437 350 437.3 348.7 440 349.2C441.2 349.5 441.6 351.5 441.8 359.9ZM360.6 356.9C360.1 360.5 360.2 360.9 362.2 361.2C363.5 361.4 364.6 362.3 364.8 363.2C365.1 364.6 364.4 365 361.8 365C358.8 365 358.2 365.4 357.1 368.5C355.7 372.5 353 373.2 353 369.7C353 367.7 354.8 361.7 357.5 354.2C357.7 353.6 358.7 353 359.6 353C361 353 361.1 353.7 360.6 356.9ZM300.6 356.7C307.5 359 311.9 362 317.3 367.9C323.8 375.2 326.4 382.3 326.3 393C326.3 405.2 323.6 411.5 315.1 420.1C306.6 428.5 300.1 431.3 288.5 431.3C273 431.3 261.5 424.2 254.5 410.6C250.7 403 250.5 402.4 250.5 393.1C250.5 384.2 250.8 382.9 253.8 376.7C258.8 366.7 266 360.2 276.1 356.6C282 354.6 294.4 354.6 300.6 356.7ZM528.2 358.5C536.1 362.4 542.1 368.4 546.1 376.6C549.3 383 549.5 384.2 549.5 393.1C549.5 402.4 549.3 403 545.5 410.6C538.5 424.2 527 431.3 511.5 431.3C499.9 431.3 493.4 428.5 484.9 420.1C476.4 411.5 473.7 405.2 473.7 393C473.6 382 476.2 375.1 483.2 367.5C491.9 358 499.4 354.9 513 355.3C521.1 355.6 523.4 356 528.2 358.5ZM424.8 358.2C425.1 359.6 424.5 360 422.1 360C419.2 360 418 358.3 419.7 356.6C421 355.3 424.5 356.5 424.8 358.2ZM428.9 368.6C429.1 368.8 429 369.6 428.7 370.5C427.8 372.7 419.2 372.6 418.3 370.4C417.4 368 420 366.9 424.5 367.6C426.7 367.9 428.7 368.4 428.9 368.6Z" fill="#BA5499"/>
<path d="M288.8 359.7C289.5 360 290.4 359.9 290.7 359.6C291.1 359.3 290.5 359 289.4 359.1C288.3 359.1 288 359.4 288.8 359.7Z" fill="#BA5499"/>
<path d="M293.499 359.999C293.799 360.499 295.299 360.999 296.799 360.899C299.199 360.899 299.299 360.799 297.499 359.999C294.699 358.799 292.799 358.799 293.499 359.999Z" fill="#BA5499"/>
<path d="M273.5 362.9C268.8 364.1 266.5 365.6 262.1 370.6C254.1 379.7 251.7 393.7 256.1 405.5C258.1 411 262.7 417.6 263.8 416.6C264.1 416.3 264.9 416.5 265.6 417.1C266.7 418 267.2 417.7 267.8 415.9C268.6 413.7 269.1 413.7 281.1 413.6C293.1 413.5 293.7 413.4 299.9 410.2C303.4 408.4 306.5 407.2 306.8 407.5C307.1 407.8 306.1 409.3 304.7 410.8C301.6 414 301 419 303.7 419C306.7 419 313.9 414.9 316.9 411.4C321.8 405.9 321.8 403.8 317.2 398.3C315 395.7 311.5 390.6 309.4 387C304.7 378.8 294.1 368.3 287 364.7C281.4 362 278.9 361.6 273.5 362.9ZM261.6 404.9L262 411.5L260.4 408C259.5 406.1 258.6 401.6 258.4 398L258 391.5L259.5 394.9C260.4 396.7 261.3 401.2 261.6 404.9Z" fill="#BA5499"/>
<path d="M311.5 372.6C313.9 376.8 316.2 381.7 316.6 383.4C317.3 386.9 321.7 396 322.6 396C323.9 396 321.7 384.2 319.5 379.3C317.3 374.5 309.7 365 308 365C307.5 365 309.2 368.4 311.5 372.6Z" fill="#BA5499"/>
<path d="M502.499 359.999C500.699 360.799 500.799 360.899 503.199 360.899C504.699 360.999 506.199 360.499 506.499 359.999C507.199 358.799 505.299 358.799 502.499 359.999Z" fill="#BA5499"/>
<path d="M509.8 359.7C510.5 360 511.4 359.9 511.7 359.6C512.1 359.3 511.5 359 510.4 359.1C509.3 359.1 509 359.4 509.8 359.7Z" fill="#BA5499"/>
<path d="M512.998 364.7C505.798 368.4 495.298 378.9 490.598 387C488.498 390.6 484.998 395.7 482.798 398.3C478.198 403.8 478.198 405.9 483.098 411.4C486.098 414.9 493.298 419 496.298 419C498.998 419 498.398 414 495.298 410.8C493.898 409.3 492.898 407.8 493.198 407.5C493.498 407.2 496.598 408.4 500.098 410.2C506.298 413.4 506.898 413.5 518.898 413.6C530.898 413.7 531.398 413.7 532.198 415.9C532.898 417.8 533.298 418 534.498 417C535.298 416.3 535.998 416.1 535.998 416.5C535.998 418.3 540.398 413.1 542.798 408.5C544.798 404.6 545.398 401.6 545.798 395C546.298 384.6 543.998 377.6 537.898 370.7C533.198 365.3 529.498 363.3 523.098 362.5C519.298 362 517.598 362.4 512.998 364.7ZM540.498 405.5C539.698 408.5 538.698 411 538.298 411C537.298 411 538.798 398.9 540.198 395L541.498 391.5L541.798 395.8C541.998 398.1 541.398 402.5 540.498 405.5Z" fill="#BA5499"/>
<path d="M487 369.6C481.8 375.2 478.4 382.7 477.5 390.2C477.2 393.4 477.1 396 477.4 396C478.3 396 482.7 386.8 483.4 383.4C483.8 381.7 486.1 376.8 488.5 372.6C490.8 368.4 492.5 365 492 365C491.6 365 489.4 367.1 487 369.6Z" fill="#BA5499"/>
<path d="M370.4 443.6C364.3 447.7 362.1 450 360.9 453.9C359.5 458.4 349 479 345.4 484.7C343.5 487.6 341.3 489.4 338.4 490.5C335.7 491.5 333.3 493.5 331.5 496C327.6 501.6 314.8 512.8 313 512.2C312.2 511.9 309.7 510.5 307.5 509C300.7 504.4 296.7 502.7 291 502.1L285.6 501.5L280.8 492.5C275.3 482.1 273.8 477.5 273.8 470.8L273.9 466H262.4C251.1 466 251 466 251.4 468.2C251.7 469.5 252.2 473.2 252.5 476.5C253.6 486.2 257.7 498.8 263.5 510.2L269 520.8L266.9 541.7C263.6 575.5 257.8 601.4 249.3 619.9C245 629.4 243.9 630.5 232.9 637.1C228 640 218.9 646.9 212.7 652.3C196.2 666.9 184.2 676.3 167.2 687.9C158.8 693.6 152 698.9 152 699.6C152 701.3 167.3 713.1 183 723.5C235.2 758 292.2 778.7 357 786.6C377.3 789.1 422.7 789.1 443 786.6C507.8 778.7 564.7 758.1 617 723.5C632.7 713.1 648 701.3 648 699.6C648 698.9 641.2 693.6 632.8 687.9C615.8 676.3 603.8 666.9 587.6 652.6C581.5 647.3 572.3 640.3 567 637C561.7 633.7 556.6 630.2 555.7 629.2C553.3 626.5 547.6 613.6 544.2 602.9C539.9 589.7 535.4 565.4 533.6 546C532.7 536.9 531.8 527.5 531.5 525.2C531.1 521.4 531.7 519.5 536.5 510.2C542.3 498.8 546.4 486.2 547.5 476.5C547.8 473.2 548.3 469.5 548.6 468.2C549 466 548.9 466 537.6 466H526.1L526.2 470.8C526.2 477.5 524.7 482.1 519.2 492.5L514.4 501.5L509 502.1C503.3 502.7 499.3 504.4 492.5 509C490.3 510.5 487.8 511.9 487 512.2C485.2 512.8 472.4 501.6 468.5 496C466.7 493.5 464.3 491.5 461.6 490.5C458.7 489.4 456.5 487.6 454.6 484.7C450.9 478.9 440.5 458.3 439 453.7C437.2 448 424.8 438.9 422.3 441.4C422 441.7 422.3 442.7 423.1 443.6C424.9 445.8 427.9 457.5 428 462.6C428 464.8 427.3 467.5 426.5 468.6C425.7 469.6 425 471.3 425 472.2C425 475 421.2 478.2 418.9 477.5C417.6 477 417 477.3 417 478.5C417 479.4 417.8 480.4 418.8 480.6C419.7 480.9 421.5 482.6 422.7 484.4C423.9 486.2 427.4 489.1 430.5 490.9C437.6 494.9 451.7 508.9 455.2 515.5C461.8 527.9 468.2 567 463.6 567C462.8 567 458.8 568.6 454.7 570.6C447.3 574.1 446.6 574.2 431.3 575C418.1 575.6 414.7 576.1 410.5 578C403.9 581 396.1 581 389.5 578C385.3 576.1 381.9 575.6 368.7 575C353.4 574.2 352.7 574.1 345.3 570.6C341.2 568.6 337.2 567 336.4 567C331.8 567 338.2 527.9 344.8 515.5C348.3 508.9 362.4 494.9 369.5 490.9C372.6 489.1 376.1 486.2 377.3 484.4C378.5 482.6 380.3 480.9 381.3 480.6C382.2 480.4 383 479.4 383 478.5C383 477.3 382.4 477 381.1 477.5C378.8 478.2 375 475 375 472.2C375 471.3 374.3 469.6 373.5 468.6C372.7 467.5 372 464.8 372 462.6C372.1 457.6 375.2 445.4 376.8 443.8C380.4 440.2 375.7 440.1 370.4 443.6ZM349.8 589.5C361.9 602.6 361.8 602.6 370 605.9C379.3 609.6 387.6 611 400 611C412.6 611 420.8 609.5 430.4 605.7C437.9 602.7 438.9 601.8 448.4 591.5C454 585.4 459.6 579.1 460.8 577.5L463.1 574.5L461.6 578.2C456.6 590.8 443.7 606.4 435.1 610.1C432.7 611.2 429.1 613.7 427.3 615.7L423.9 619.3H400H376.1L372.7 615.7C370.9 613.7 367.3 611.2 364.9 610.1C356.3 606.4 343.4 590.8 338.4 578.2L336.9 574.5L339.2 577.5C340.5 579.1 345.2 584.5 349.8 589.5ZM375.8 581C383.2 581 386.2 581.5 390.3 583.2C393.2 584.5 397.5 585.5 400 585.5C402.5 585.5 406.8 584.5 409.7 583.2C413.8 581.5 416.8 581 424.2 581C429.3 581 437.4 580.2 442.2 579.2C447 578.2 450.6 577.8 450.3 578.3C449.1 580.3 435 586 428.4 587.1C424.5 587.8 412.1 588.3 400 588.3C387.9 588.3 375.5 587.8 371.6 587.1C365 586 350.9 580.3 349.7 578.3C349.4 577.8 353 578.2 357.8 579.2C362.6 580.2 370.7 581 375.8 581ZM301 587.5C302.8 589.4 303 590 301.8 590C298.6 590 299.1 593.3 304 604.2C306.8 610.4 309 615.6 309 615.8C309 616 308.1 615.2 307.1 613.9C305.5 612 304.9 611.7 303.9 612.8C301.9 614.7 304.8 622 318.9 650.3C329.6 671.8 331.8 675.5 333.6 675.3C335.3 675.1 336.3 676.4 338.7 682C341.1 687.4 342.3 689 343.9 689C347.3 689 346.5 685.9 339.1 670.1C335.3 662.1 328.8 647.6 324.7 638C320.5 628.4 314.4 614.4 311.2 607C307.9 599.6 305.3 593.4 305.4 593.3C305.5 593.2 306.5 593.3 307.6 593.6C309.1 594 311.4 597.8 315.8 607.3C323.1 623.1 338.2 658.4 344 673C351.1 691 353.1 695 355 695C356 695 357.2 696.2 357.8 697.7C358.4 699.3 360.1 703.6 361.6 707.5C364.3 714.6 369.1 720.7 371 719.5C373.4 718 371.9 710 366.5 695.9C363.5 688 360.4 681 359.7 680.5C357.7 679.1 355.9 675.3 354 669C352.2 663 349.3 661 348.3 665C347.6 667.5 342.1 654.9 329.5 622.2C321.9 602.6 320.7 598.8 323.5 602.8C324.4 604 327.2 606.4 329.8 608.2C332.4 610 337.7 614.4 341.5 618C345.4 621.6 350.8 626.1 353.4 628C364.8 636.4 367.9 639 368.4 640.8C368.8 641.9 371.3 644.6 374.1 647C377.8 650.1 379.7 651.1 381.5 650.7C383.1 650.5 384.6 651 385.6 652.1C387.3 654 390 653.6 390 651.4C390 650.6 388.6 647.1 386.9 643.7C382.5 635.1 381.8 632.1 383.1 628.3L384.2 625H400H415.8L416.9 628.3C418.2 632.1 417.5 635.1 413.1 643.7C411.4 647.1 410 650.6 410 651.4C410 653.6 412.7 654 414.4 652.1C415.4 651 416.9 650.5 418.5 650.7C421.3 651.3 429 645.4 432 640.3C433 638.5 435.8 635.7 438.2 634.1C447.4 627.6 451.6 624.3 458.5 618C462.3 614.4 467.6 610 470.2 608.2C472.8 606.4 475.6 604 476.5 602.8C479.3 598.8 478.1 602.6 470.5 622.2C457.9 654.9 452.4 667.5 451.7 665C450.7 661 447.8 663 446 669C444.1 675.3 442.3 679.1 440.3 680.5C438 682.3 428 709.9 428 714.6C428 725.6 434.8 718.1 441.4 699.7C442.6 696.5 443.7 695 444.9 695C446.9 695 448.8 691.1 456 673C463.6 653.7 489.1 595.5 490.4 594.4C490.4 594.3 491.5 593.9 492.7 593.6C494.9 592.9 494.9 593.1 491.6 600.7C489.7 605 483.6 619.1 478 632C472.4 644.9 464.7 662 460.9 670C453.5 685.6 452.6 689 456.1 689C457.7 689 458.9 687.4 461.3 682C463.7 676.4 464.7 675.1 466.4 675.3C468.2 675.5 470.4 671.8 481.1 650.3C495.2 622 498.1 614.7 496.1 612.8C495.1 611.7 494.5 612 492.9 613.9C491.9 615.2 491 616 491 615.8C491 615.6 493.2 610.4 496 604.2C500.9 593.3 501.4 590 498.2 590C497 590 497.2 589.4 499 587.5C500.3 586.1 501.6 585 501.9 585C502.3 585 504.5 588.1 506.9 592C510.4 597.7 511.7 599 513.7 599C516.7 599 521.6 603.9 523.7 609C524.5 610.9 525.8 613.2 526.5 614C527.2 614.8 529.9 621.8 532.5 629.5C535.1 637.2 538.6 646.2 540.3 649.5C542 652.8 544.7 658.2 546.3 661.5C547.9 664.7 551.9 670.3 555.1 673.9C558.3 677.4 561 681.1 561 682.1C561 683 562.2 685.2 563.6 686.9C565.3 689 565.9 690.6 565.5 691.9C564.4 695.4 552.6 705.3 541.8 711.7L531.3 718H521.7C515 718 510.1 718.6 505.8 719.9C502.3 721 497.5 722.4 495 723C492.5 723.7 484.8 726.6 477.7 729.6C470.7 732.6 464.2 735 463.3 735C462.3 735 459 736.6 455.9 738.5C452.9 740.4 448.3 742.4 445.9 742.9C443.5 743.5 436.6 746 430.7 748.5C417.4 754 406 757.3 400 757.3C394 757.3 383 754.1 368.4 748.2C361.9 745.5 354.9 743 353 742.6C351.1 742.2 347 740.4 344 738.5C341 736.6 337.8 735 336.8 735C335.8 735 329.3 732.6 322.3 729.6C315.2 726.6 307.5 723.7 305 723C302.5 722.4 297.7 721 294.2 719.9C289.9 718.6 285 718 278.3 718H268.7L258.2 711.7C247.4 705.3 235.6 695.4 234.5 691.9C234.1 690.6 234.7 689 236.4 686.9C237.8 685.2 239 683 239 682.1C239 681.1 241.7 677.4 244.9 673.9C248.1 670.3 252.1 664.7 253.7 661.5C255.3 658.2 258 652.8 259.7 649.5C261.4 646.2 264.9 637.2 267.5 629.5C270.1 621.8 272.8 614.8 273.5 614C274.2 613.2 275.5 610.9 276.3 609C278.4 603.9 283.3 599 286.3 599C288.3 599 289.6 597.7 293.1 592C295.5 588.1 297.7 585 298.1 585C298.4 585 299.7 586.1 301 587.5ZM382.8 600.6C398 603.5 416.5 602 431.9 596.6C440.3 593.7 440.1 595.3 431.6 599.4C416.1 606.9 383.9 606.9 368.4 599.4C359.9 595.3 359.7 593.7 368.1 596.6C372.2 598 378.8 599.8 382.8 600.6Z" fill="#BA5499"/>
<path d="M374.498 489.9C363.098 495.1 348.298 510.4 346.598 518.5C345.198 525 356.198 541.3 362.798 542.6C365.698 543.2 365.998 543.6 365.998 547C365.998 549.3 366.798 551.8 368.198 553.6C376.298 564.3 380.598 569 384.298 571C387.998 573.1 389.798 573.4 399.998 573.4C415.898 573.4 417.598 572.4 431.798 553.6C433.198 551.8 433.998 549.3 433.998 547C433.998 543.6 434.298 543.2 437.198 542.6C443.798 541.3 454.798 525 453.398 518.5C451.698 510.2 436.798 495.1 425.098 489.7L418.698 486.8L409.098 488.4C400.598 489.8 398.598 489.8 391.498 488.5C381.198 486.6 381.498 486.6 374.498 489.9ZM356.798 520C360.398 524.3 364.998 533.4 364.998 536.2C364.998 537.2 364.398 538 363.598 538C358.498 538 348.398 520 351.698 516.7C352.798 515.5 353.398 515.9 356.798 520ZM448.798 519.3C449.398 524.2 440.398 538 436.598 538C433.198 538 436.398 529.2 442.698 520.8C446.698 515.6 448.298 515.2 448.798 519.3ZM370.498 530.4C372.298 536.2 372.498 540.4 370.998 538C370.498 537.2 369.998 535.4 369.998 534C369.998 532.6 368.898 529 367.498 526C365.398 521.3 365.298 520.9 366.998 523C368.098 524.4 369.698 527.7 370.498 530.4ZM432.498 526.2C431.098 529.1 429.998 532.6 429.998 534C429.998 535.4 429.498 537.2 428.998 538C428.198 539.2 427.998 539.2 427.998 537.5C427.998 534.2 429.998 527.7 432.198 524.2C435.098 519.4 435.198 520.3 432.498 526.2Z" fill="#BA5499"/>
</svg>
