<svg width="118" height="118" viewBox="0 0 118 118" fill="none" xmlns="http://www.w3.org/2000/svg">
<g clip-path="url(#clip0_2926_5)">
<path d="M47.8304 91.7613L102.404 89.6925C103.235 89.661 103.666 88.6876 103.132 88.0504L40.0539 12.8771C39.5329 12.2562 38.5285 12.4805 38.3211 13.264L24.8082 64.3246M47.8304 91.7613L39.925 98.3947C34.425 103.01 26.2252 102.292 21.6102 96.7924L15.3005 89.2728C10.6855 83.7728 11.4029 75.573 16.9028 70.958L24.8082 64.3246M47.8304 91.7613L24.8082 64.3246" stroke="white" stroke-width="6"/>
<path d="M65.7855 13.7596C81.5357 13.5019 111.516 22.5921 105.437 61.0146" stroke="white" stroke-width="6" stroke-linecap="round" stroke-linejoin="round"/>
<path d="M65.2893 28.0599C76.4529 27.6293 97.551 33.5445 92.6353 60.6495" stroke="white" stroke-width="4" stroke-linecap="round" stroke-linejoin="round"/>
<path d="M34.3757 27.6201L86.333 89.5404" stroke="white" stroke-width="4" stroke-linecap="round" stroke-linejoin="round"/>
</g>
<defs>
<clipPath id="clip0_2926_5">
<rect width="118" height="118" fill="white"/>
</clipPath>
</defs>
</svg>
