<svg width="50" height="36" viewBox="0 0 50 36" fill="none" xmlns="http://www.w3.org/2000/svg">
<path d="M38.3998 3.69961C33.0998 3.69961 29.0998 7.19961 27.4998 12.6996C24.9998 8.79961 22.9998 4.39961 21.8998 0.599609H16.2998V15.2996C16.2998 18.1996 13.8998 20.5996 10.9998 20.5996C8.0998 20.5996 5.6998 18.1996 5.6998 15.2996V0.699609H0.299805V15.3996C0.299805 21.4996 5.1998 26.3996 11.1998 26.3996C17.1998 26.3996 22.0998 21.4996 22.0998 15.3996V12.8996C23.1998 15.0996 24.5998 17.4996 26.0998 19.5996L22.5998 35.8996H28.2998L30.6998 23.9996C32.8998 25.3996 35.3998 26.1996 38.3998 26.1996C44.4998 26.1996 49.4998 21.1996 49.4998 14.7996C49.4998 8.69961 44.4998 3.69961 38.3998 3.69961ZM38.3998 20.5996C36.1998 20.5996 33.8998 19.5996 32.0998 18.0996L32.6998 15.8996V15.7996C33.0998 13.3996 34.3998 9.39961 38.4998 9.39961C41.5998 9.39961 44.0998 11.8996 44.0998 14.9996C43.9998 18.0996 41.2998 20.5996 38.3998 20.5996Z" fill="#1AAFE9"/>
</svg>
