<svg width="187" height="89" viewBox="0 0 187 89" fill="none" xmlns="http://www.w3.org/2000/svg">
<path d="M93.446 4.88867H64.8C64.6343 4.88867 64.5 4.75436 64.5 4.58867V1.68867C64.5 1.52299 64.6343 1.38867 64.8 1.38867H99.9394C100.179 1.38867 100.322 1.65572 100.189 1.85508L66.5891 52.2551C66.5334 52.3385 66.4398 52.3887 66.3394 52.3887H63.554C63.3157 52.3887 63.1726 52.1243 63.3028 51.9247L93.6972 5.35263C93.8274 5.15309 93.6843 4.88867 93.446 4.88867Z" fill="#AB2B86"/>
<path d="M69.5485 53.389H97.2C97.3657 53.389 97.5 53.2547 97.5 53.089V50.189C97.5 50.0233 97.3657 49.889 97.2 49.889H75.5573C75.3183 49.889 75.1753 49.6233 75.3068 49.4238L89.893 27.3092C90.0613 27.0541 90.4664 27.1991 90.4608 27.5047C90.0592 49.5576 112.501 53.9758 124.223 53.4036C124.382 53.3958 124.5 53.2646 124.5 53.1054V50.198C124.5 50.0288 124.353 49.8934 124.184 49.8975C97.2705 50.5508 93.5039 32.8539 94.5 23.8889C98.9463 4.1277 114.62 2.91527 124.157 4.33603C124.339 4.36319 124.5 4.22193 124.5 4.03759V0.66583C124.5 0.509422 124.379 0.379215 124.223 0.366781C111.827 -0.621765 100.22 -1.2428 89.5 21.389L69.2959 52.9272C69.1679 53.1268 69.3113 53.389 69.5485 53.389Z" fill="#AB2B86"/>
<path d="M0.738 83.8887V82.3227L8.874 72.3867L9.144 73.2687H0.864V71.2887H11.25V72.8547L3.114 82.7907L2.826 81.9087H11.484V83.8887H0.738ZM15.7875 76.5267H22.0515V78.4527H15.7875V76.5267ZM15.9675 81.9267H23.0775V83.8887H13.6275V71.2887H22.8255V73.2507H15.9675V81.9267ZM25.6861 83.8887V71.2887H30.8701C31.9861 71.2887 32.9401 71.4687 33.7321 71.8287C34.5361 72.1887 35.1541 72.7047 35.5861 73.3767C36.0181 74.0487 36.2341 74.8467 36.2341 75.7707C36.2341 76.6947 36.0181 77.4927 35.5861 78.1647C35.1541 78.8367 34.5361 79.3527 33.7321 79.7127C32.9401 80.0727 31.9861 80.2527 30.8701 80.2527H26.9821L28.0261 79.1547V83.8887H25.6861ZM28.0261 79.4067L26.9821 78.2727H30.7621C31.7941 78.2727 32.5681 78.0567 33.0841 77.6247C33.6121 77.1807 33.8761 76.5627 33.8761 75.7707C33.8761 74.9667 33.6121 74.3487 33.0841 73.9167C32.5681 73.4847 31.7941 73.2687 30.7621 73.2687H26.9821L28.0261 72.1167V79.4067ZM47.4269 71.2887H49.7669V83.8887H47.4269V71.2887ZM40.9109 83.8887H38.5709V71.2887H40.9109V83.8887ZM47.6069 78.4887H40.7129V76.4907H47.6069V78.4887ZM56.2392 83.8887V78.9027L56.7612 80.3427L51.2892 71.2887H53.7912L58.1832 78.5787H56.7792L61.2072 71.2887H63.5112L58.0392 80.3427L58.5792 78.9027V83.8887H56.2392ZM64.8854 83.8887V71.2887H70.0694C71.1854 71.2887 72.1394 71.4687 72.9314 71.8287C73.7354 72.1887 74.3534 72.7047 74.7854 73.3767C75.2174 74.0487 75.4334 74.8467 75.4334 75.7707C75.4334 76.6947 75.2174 77.4927 74.7854 78.1647C74.3534 78.8247 73.7354 79.3347 72.9314 79.6947C72.1394 80.0427 71.1854 80.2167 70.0694 80.2167H66.1814L67.2254 79.1547V83.8887H64.8854ZM73.1294 83.8887L69.9434 79.3167H72.4454L75.6494 83.8887H73.1294ZM67.2254 79.4067L66.1814 78.2907H69.9614C70.9934 78.2907 71.7674 78.0687 72.2834 77.6247C72.8114 77.1807 73.0754 76.5627 73.0754 75.7707C73.0754 74.9667 72.8114 74.3487 72.2834 73.9167C71.7674 73.4847 70.9934 73.2687 69.9614 73.2687H66.1814L67.2254 72.1167V79.4067ZM83.4694 84.0687C81.7414 84.0687 80.3854 83.5827 79.4014 82.6107C78.4294 81.6387 77.9434 80.2347 77.9434 78.3987V71.2887H80.2834V78.3087C80.2834 79.6047 80.5594 80.5467 81.1114 81.1347C81.6754 81.7227 82.4674 82.0167 83.4874 82.0167C84.5074 82.0167 85.2934 81.7227 85.8454 81.1347C86.3974 80.5467 86.6734 79.6047 86.6734 78.3087V71.2887H88.9774V78.3987C88.9774 80.2347 88.4854 81.6387 87.5014 82.6107C86.5294 83.5827 85.1854 84.0687 83.4694 84.0687ZM96.1605 84.0687C95.1765 84.0687 94.2345 83.9307 93.3345 83.6547C92.4345 83.3667 91.7205 83.0007 91.1925 82.5567L92.0025 80.7387C92.5065 81.1347 93.1305 81.4647 93.8745 81.7287C94.6185 81.9927 95.3805 82.1247 96.1605 82.1247C96.8205 82.1247 97.3545 82.0527 97.7625 81.9087C98.1705 81.7647 98.4705 81.5727 98.6625 81.3327C98.8545 81.0807 98.9505 80.7987 98.9505 80.4867C98.9505 80.1027 98.8125 79.7967 98.5365 79.5687C98.2605 79.3287 97.9005 79.1427 97.4565 79.0107C97.0245 78.8667 96.5385 78.7347 95.9985 78.6147C95.4705 78.4947 94.9365 78.3567 94.3965 78.2007C93.8685 78.0327 93.3825 77.8227 92.9385 77.5707C92.5065 77.3067 92.1525 76.9587 91.8765 76.5267C91.6005 76.0947 91.4625 75.5427 91.4625 74.8707C91.4625 74.1867 91.6425 73.5627 92.0025 72.9987C92.3745 72.4227 92.9325 71.9667 93.6765 71.6307C94.4325 71.2827 95.3865 71.1087 96.5385 71.1087C97.2945 71.1087 98.0445 71.2047 98.7885 71.3967C99.5325 71.5887 100.181 71.8647 100.732 72.2247L99.9945 74.0427C99.4305 73.7067 98.8485 73.4607 98.2485 73.3047C97.6485 73.1367 97.0725 73.0527 96.5205 73.0527C95.8725 73.0527 95.3445 73.1307 94.9365 73.2867C94.5405 73.4427 94.2465 73.6467 94.0545 73.8987C93.8745 74.1507 93.7845 74.4387 93.7845 74.7627C93.7845 75.1467 93.9165 75.4587 94.1805 75.6987C94.4565 75.9267 94.8105 76.1067 95.2425 76.2387C95.6865 76.3707 96.1785 76.5027 96.7185 76.6347C97.2585 76.7547 97.7925 76.8927 98.3205 77.0487C98.8605 77.2047 99.3465 77.4087 99.7785 77.6607C100.223 77.9127 100.577 78.2547 100.841 78.6867C101.117 79.1187 101.255 79.6647 101.255 80.3247C101.255 80.9967 101.069 81.6207 100.697 82.1967C100.337 82.7607 99.7785 83.2167 99.0225 83.5647C98.2665 83.9007 97.3125 84.0687 96.1605 84.0687ZM114.381 84.0687C113.421 84.0687 112.527 83.9127 111.699 83.6007C110.883 83.2767 110.169 82.8267 109.557 82.2507C108.957 81.6627 108.489 80.9727 108.153 80.1807C107.817 79.3887 107.649 78.5247 107.649 77.5887C107.649 76.6527 107.817 75.7887 108.153 74.9967C108.489 74.2047 108.963 73.5207 109.575 72.9447C110.187 72.3567 110.901 71.9067 111.717 71.5947C112.533 71.2707 113.427 71.1087 114.399 71.1087C115.431 71.1087 116.373 71.2887 117.225 71.6487C118.077 71.9967 118.797 72.5187 119.385 73.2147L117.873 74.6367C117.417 74.1447 116.907 73.7787 116.343 73.5387C115.779 73.2867 115.167 73.1607 114.507 73.1607C113.847 73.1607 113.241 73.2687 112.689 73.4847C112.149 73.7007 111.675 74.0067 111.267 74.4027C110.871 74.7987 110.559 75.2667 110.331 75.8067C110.115 76.3467 110.007 76.9407 110.007 77.5887C110.007 78.2367 110.115 78.8307 110.331 79.3707C110.559 79.9107 110.871 80.3787 111.267 80.7747C111.675 81.1707 112.149 81.4767 112.689 81.6927C113.241 81.9087 113.847 82.0167 114.507 82.0167C115.167 82.0167 115.779 81.8967 116.343 81.6567C116.907 81.4047 117.417 81.0267 117.873 80.5227L119.385 81.9627C118.797 82.6467 118.077 83.1687 117.225 83.5287C116.373 83.8887 115.425 84.0687 114.381 84.0687ZM119.582 83.8887L125.252 71.2887H127.556L133.244 83.8887H130.796L125.918 72.5307H126.854L121.994 83.8887H119.582ZM122.192 80.9727L122.822 79.1367H129.626L130.256 80.9727H122.192ZM134.846 83.8887V71.2887H140.03C141.146 71.2887 142.1 71.4687 142.892 71.8287C143.696 72.1887 144.314 72.7047 144.746 73.3767C145.178 74.0487 145.394 74.8467 145.394 75.7707C145.394 76.6947 145.178 77.4927 144.746 78.1647C144.314 78.8367 143.696 79.3527 142.892 79.7127C142.1 80.0727 141.146 80.2527 140.03 80.2527H136.142L137.186 79.1547V83.8887H134.846ZM137.186 79.4067L136.142 78.2727H139.922C140.954 78.2727 141.728 78.0567 142.244 77.6247C142.772 77.1807 143.036 76.5627 143.036 75.7707C143.036 74.9667 142.772 74.3487 142.244 73.9167C141.728 73.4847 140.954 73.2687 139.922 73.2687H136.142L137.186 72.1167V79.4067ZM147.731 83.8887V71.2887H150.071V83.8887H147.731ZM156.035 83.8887V73.2687H151.859V71.2887H162.551V73.2687H158.375V83.8887H156.035ZM161.892 83.8887L167.562 71.2887H169.866L175.554 83.8887H173.106L168.228 72.5307H169.164L164.304 83.8887H161.892ZM164.502 80.9727L165.132 79.1367H171.936L172.566 80.9727H164.502ZM177.157 83.8887V71.2887H179.497V81.9087H186.085V83.8887H177.157Z" fill="#AB2B86"/>
</svg>
