<svg width="400" height="300" viewBox="0 0 400 300" fill="none" xmlns="http://www.w3.org/2000/svg">
<path d="M98.7483 235.685C97.2805 235.685 95.8992 235.448 94.6041 234.972C93.3522 234.496 92.3161 233.567 91.4959 232.184C90.6757 230.757 90.2656 228.639 90.2656 225.829V204.82C90.2656 202.573 90.6973 200.822 91.5607 199.568C92.4672 198.315 93.7191 197.45 95.3164 196.975C96.9136 196.456 98.7699 196.197 100.885 196.197C103 196.197 104.857 196.456 106.454 196.975C108.094 197.45 109.368 198.315 110.274 199.568C111.224 200.822 111.699 202.573 111.699 204.82V210.202H104.382V204.432C104.382 203.394 104.231 202.616 103.929 202.097C103.67 201.535 103.303 201.168 102.828 200.995C102.353 200.822 101.77 200.736 101.079 200.736C100.432 200.736 99.8491 200.822 99.3311 200.995C98.8562 201.168 98.4677 201.535 98.1655 202.097C97.9065 202.616 97.777 203.394 97.777 204.432V227.645C97.777 228.639 97.9065 229.417 98.1655 229.979C98.4677 230.498 98.8562 230.865 99.3311 231.081C99.8491 231.254 100.432 231.341 101.079 231.341C102.072 231.341 102.871 231.038 103.475 230.433C104.08 229.828 104.382 228.899 104.382 227.645V219.993H101.274V215.714H111.699V234.972H106.065L105.677 231.989C105.591 232.119 105.504 232.249 105.418 232.378C105.332 232.508 105.267 232.616 105.224 232.703C104.792 233.438 104.058 234.129 103.022 234.778C102.029 235.383 100.605 235.685 98.7483 235.685ZM125.973 235.491C123.728 235.491 121.829 235.253 120.275 234.778C118.764 234.259 117.62 233.265 116.843 231.795C116.066 230.282 115.677 228.012 115.677 224.986V210.527C115.677 207.371 116.519 205.21 118.203 204.042C119.886 202.875 122.433 202.292 125.843 202.292C129.211 202.292 131.736 202.875 133.419 204.042C135.103 205.21 135.945 207.371 135.945 210.527V219.28H123.059V228.034C123.059 229.331 123.253 230.239 123.642 230.757C124.074 231.276 124.829 231.535 125.908 231.535C126.901 231.535 127.57 231.298 127.915 230.822C128.304 230.303 128.498 229.374 128.498 228.034V222.912H135.945V224.922C135.945 227.947 135.556 230.217 134.779 231.73C134.002 233.243 132.858 234.259 131.347 234.778C129.88 235.253 128.088 235.491 125.973 235.491ZM123.059 215.908H128.498V210.138C128.498 208.884 128.304 207.998 127.915 207.479C127.57 206.96 126.879 206.701 125.843 206.701C124.807 206.701 124.074 206.96 123.642 207.479C123.253 207.998 123.059 208.884 123.059 210.138V215.908ZM139.909 234.972V202.875H146.19L146.837 206.636C147.226 205.339 147.981 204.28 149.103 203.459C150.269 202.638 151.542 202.227 152.924 202.227C154.996 202.227 156.55 202.594 157.586 203.329C158.622 204.021 159.313 205.015 159.658 206.312C160.047 207.566 160.241 209.057 160.241 210.786V234.972H152.859V211.24C152.859 210.721 152.838 210.246 152.794 209.813C152.751 209.338 152.622 208.927 152.406 208.581C152.233 208.236 151.974 207.976 151.629 207.803C151.284 207.587 150.765 207.479 150.075 207.479C149.557 207.479 149.103 207.587 148.715 207.803C148.326 207.976 148.024 208.192 147.808 208.452C147.592 208.711 147.42 208.949 147.29 209.165V234.972H139.909ZM174.348 235.491C172.103 235.491 170.204 235.253 168.65 234.778C167.139 234.259 165.995 233.265 165.218 231.795C164.441 230.282 164.052 228.012 164.052 224.986V210.527C164.052 207.371 164.894 205.21 166.578 204.042C168.261 202.875 170.808 202.292 174.219 202.292C177.586 202.292 180.111 202.875 181.795 204.042C183.478 205.21 184.32 207.371 184.32 210.527V219.28H171.434V228.034C171.434 229.331 171.628 230.239 172.017 230.757C172.449 231.276 173.204 231.535 174.283 231.535C175.276 231.535 175.945 231.298 176.291 230.822C176.679 230.303 176.873 229.374 176.873 228.034V222.912H184.32V224.922C184.32 227.947 183.932 230.217 183.155 231.73C182.377 233.243 181.233 234.259 179.723 234.778C178.255 235.253 176.463 235.491 174.348 235.491ZM171.434 215.908H176.873V210.138C176.873 208.884 176.679 207.998 176.291 207.479C175.945 206.96 175.254 206.701 174.219 206.701C173.183 206.701 172.449 206.96 172.017 207.479C171.628 207.998 171.434 208.884 171.434 210.138V215.908ZM197.673 235.426C194.996 235.426 192.903 235.102 191.392 234.453C189.924 233.762 188.888 232.703 188.284 231.276C187.722 229.849 187.442 228.056 187.442 225.894V223.43H194.824V227.58C194.824 228.963 195.018 229.958 195.407 230.563C195.795 231.125 196.529 231.406 197.608 231.406C198.558 231.406 199.227 231.146 199.615 230.628C200.047 230.066 200.263 229.244 200.263 228.164V225.7C200.263 224.662 200.069 223.841 199.68 223.236C199.292 222.63 198.687 222.133 197.867 221.744C197.047 221.312 196.011 220.837 194.759 220.318C193.593 219.842 192.514 219.302 191.521 218.697C190.528 218.091 189.708 217.292 189.061 216.298C188.456 215.303 188.154 214.028 188.154 212.472V210.592C188.154 207.911 188.888 205.88 190.356 204.497C191.823 203.07 194.478 202.357 198.32 202.357C200.867 202.357 202.853 202.681 204.278 203.329C205.702 203.978 206.695 204.994 207.256 206.377C207.861 207.717 208.163 209.424 208.163 211.499V213.898H201.04V210.267C201.04 208.841 200.824 207.847 200.393 207.285C200.004 206.679 199.335 206.377 198.385 206.377C197.306 206.377 196.572 206.658 196.184 207.22C195.838 207.782 195.665 208.473 195.665 209.295V211.694C195.665 212.774 195.946 213.639 196.507 214.288C197.112 214.893 197.889 215.39 198.838 215.779C199.788 216.125 200.802 216.514 201.882 216.946C203.004 217.335 204.04 217.832 204.99 218.437C205.94 218.999 206.695 219.756 207.256 220.707C207.861 221.658 208.163 222.933 208.163 224.532V226.478C208.163 228.423 207.839 230.066 207.191 231.406C206.587 232.746 205.508 233.762 203.954 234.453C202.443 235.102 200.349 235.426 197.673 235.426ZM214.323 188.805H223.389V197.429H214.323V188.805ZM214.647 202.681H223.065V234.972H214.647V202.681ZM239.724 235.426C237.048 235.426 234.954 235.102 233.443 234.453C231.976 233.762 230.939 232.703 230.335 231.276C229.774 229.849 229.493 228.056 229.493 225.894V223.43H236.875V227.58C236.875 228.963 237.07 229.958 237.458 230.563C237.847 231.125 238.58 231.406 239.66 231.406C240.609 231.406 241.279 231.146 241.667 230.628C242.099 230.066 242.314 229.244 242.314 228.164V225.7C242.314 224.662 242.12 223.841 241.732 223.236C241.343 222.63 240.739 222.133 239.918 221.744C239.098 221.312 238.062 220.837 236.81 220.318C235.645 219.842 234.566 219.302 233.573 218.697C232.58 218.091 231.76 217.292 231.112 216.298C230.508 215.303 230.206 214.028 230.206 212.472V210.592C230.206 207.911 230.939 205.88 232.407 204.497C233.875 203.07 236.53 202.357 240.372 202.357C242.919 202.357 244.905 202.681 246.329 203.329C247.754 203.978 248.747 204.994 249.308 206.377C249.912 207.717 250.214 209.424 250.214 211.499V213.898H243.091V210.267C243.091 208.841 242.876 207.847 242.444 207.285C242.056 206.679 241.386 206.377 240.437 206.377C239.357 206.377 238.624 206.658 238.235 207.22C237.89 207.782 237.717 208.473 237.717 209.295V211.694C237.717 212.774 237.998 213.639 238.559 214.288C239.163 214.893 239.94 215.39 240.89 215.779C241.84 216.125 242.854 216.514 243.933 216.946C245.056 217.335 246.092 217.832 247.042 218.437C247.991 218.999 248.747 219.756 249.308 220.707C249.912 221.658 250.214 222.933 250.214 224.532V226.478C250.214 228.423 249.891 230.066 249.243 231.406C248.639 232.746 247.559 233.762 246.005 234.453C244.495 235.102 242.401 235.426 239.724 235.426ZM264.211 234.972C264.211 233.675 264.211 232.378 264.211 231.081C264.211 229.785 264.211 228.488 264.211 227.191C264.211 224.857 264.492 223.02 265.053 221.68C265.657 220.296 266.542 219.172 267.708 218.308C268.917 217.4 270.449 216.492 272.305 215.584C273.816 214.849 275.003 214.114 275.867 213.38C276.73 212.645 277.356 211.78 277.744 210.786C278.176 209.749 278.392 208.43 278.392 206.831C278.435 205.231 278.22 203.999 277.744 203.135C277.27 202.27 276.428 201.838 275.219 201.838C274.054 201.838 273.212 202.357 272.694 203.394C272.219 204.388 271.981 205.88 271.981 207.868V210.527H264.47V205.728C264.47 202.616 265.377 200.303 267.19 198.79C269.046 197.234 271.766 196.456 275.349 196.456C278.068 196.456 280.227 196.823 281.824 197.558C283.421 198.293 284.544 199.439 285.191 200.995C285.882 202.551 286.227 204.604 286.227 207.155C286.227 210.181 285.731 212.623 284.738 214.482C283.745 216.341 282.061 217.919 279.687 219.215C278.651 219.734 277.68 220.253 276.773 220.772C275.867 221.29 275.068 221.852 274.377 222.458C273.73 223.063 273.255 223.841 272.953 224.792C272.694 225.354 272.478 225.981 272.305 226.672C272.133 227.321 272.046 228.034 272.046 228.812H286.357V234.972H264.211ZM289.316 234.972C289.316 233.675 289.316 232.378 289.316 231.081C289.316 229.785 289.316 228.488 289.316 227.191C289.316 224.857 289.596 223.02 290.157 221.68C290.762 220.296 291.647 219.172 292.812 218.308C294.021 217.4 295.554 216.492 297.41 215.584C298.921 214.849 300.108 214.114 300.971 213.38C301.834 212.645 302.461 211.78 302.849 210.786C303.281 209.749 303.496 208.43 303.496 206.831C303.54 205.231 303.324 203.999 302.849 203.135C302.374 202.27 301.533 201.838 300.324 201.838C299.158 201.838 298.316 202.357 297.798 203.394C297.324 204.388 297.086 205.88 297.086 207.868V210.527H289.575V205.728C289.575 202.616 290.481 200.303 292.294 198.79C294.151 197.234 296.87 196.456 300.453 196.456C303.173 196.456 305.331 196.823 306.928 197.558C308.526 198.293 309.648 199.439 310.296 200.995C310.986 202.551 311.332 204.604 311.332 207.155C311.332 210.181 310.835 212.623 309.842 214.482C308.85 216.341 307.166 217.919 304.792 219.215C303.756 219.734 302.784 220.253 301.878 220.772C300.971 221.29 300.172 221.852 299.482 222.458C298.834 223.063 298.36 223.841 298.057 224.792C297.798 225.354 297.582 225.981 297.41 226.672C297.237 227.321 297.151 228.034 297.151 228.812H311.461V234.972H289.316Z" fill="#BA5499"/>
<path d="M189.309 127.466C188.876 127.667 188.459 127.863 188.058 128.052C188.427 127.853 188.846 127.657 189.309 127.466C203.905 120.676 236.351 107.076 259.171 102.578L242.867 112.652C243.907 122.494 240.901 144.401 220.55 153.294C210.066 158.118 185.051 162.256 168.863 140.21L180.773 131.988C188.058 140.21 217.659 147.967 221.591 122.725C212.817 122.725 196.17 124.636 189.309 127.466Z" fill="#BA5499"/>
<path d="M161.463 105.706C162.665 96.6283 171.6 88.1833 175.917 85.0957C170.181 91.1167 168.285 99.4921 168.054 102.927L161.463 105.706Z" fill="#BA5499"/>
<path d="M143.193 115.546C143.193 71.0832 178.114 55.9149 199.159 54.5254V74.5569C171.407 74.5569 159.613 96.634 157.185 107.673L143.193 115.546Z" fill="#BA5499"/>
<path d="M224.829 65.7578L227.488 47L230.726 65.7578L250.036 68.7683L230.726 72.242L228.067 90.9998L224.829 72.242L205.865 69.2315L224.829 65.7578Z" fill="#BA5499"/>
<path d="M141.111 148.315C119.558 112.097 232.46 94.0106 291.778 84.8633C249.92 93.779 203.128 110.607 187.595 117.979C149.321 136.143 147.356 155.147 153.484 161.979C150.616 159.57 143.179 151.789 141.111 148.315Z" fill="#BA5499"/>
<path d="M250.037 114.273C244.486 174.368 178.461 169.157 165.279 143.684C160.284 147.389 159.344 151.017 159.498 152.368C212.341 194.168 253.043 146.231 250.037 114.273Z" fill="#BA5499"/>
</svg>
