<svg width="400" height="300" viewBox="0 0 400 300" fill="none" xmlns="http://www.w3.org/2000/svg">
<path d="M97.8398 236.058C93.0899 236.058 89.3761 234.738 86.6983 232.096C84.0205 229.456 82.6816 225.685 82.6816 220.785V202.076H90.4281V220.5C90.4281 223.68 91.0816 225.971 92.3886 227.371C93.6956 228.772 95.5286 229.471 97.8875 229.471C100.247 229.471 102.08 228.772 103.387 227.371C104.694 225.971 105.347 223.68 105.347 220.5V202.076H112.998V220.785C112.998 225.685 111.659 229.456 108.981 232.096C106.304 234.738 102.59 236.058 97.8398 236.058ZM120.653 235.485V202.076H127.06L146.809 226.13H143.701V202.076H151.352V235.485H144.992L125.196 211.43H128.304V235.485H120.653ZM159.271 235.485V202.076H167.018V235.485H159.271ZM190.98 236.058C188.398 236.058 185.991 235.645 183.76 234.816C181.56 233.958 179.647 232.75 178.021 231.19C176.396 229.631 175.12 227.801 174.196 225.701C173.303 223.601 172.857 221.294 172.857 218.78C172.857 216.268 173.303 213.96 174.196 211.861C175.12 209.76 176.396 207.93 178.021 206.371C179.679 204.812 181.608 203.62 183.807 202.793C186.007 201.933 188.414 201.504 191.028 201.504C193.929 201.504 196.543 202.013 198.87 203.03C201.229 204.018 203.205 205.48 204.799 207.421L199.826 212.003C198.679 210.7 197.403 209.728 196.001 209.091C194.598 208.423 193.068 208.089 191.41 208.089C189.848 208.089 188.414 208.345 187.107 208.854C185.8 209.363 184.668 210.094 183.712 211.049C182.755 212.003 182.006 213.133 181.464 214.437C180.954 215.742 180.699 217.19 180.699 218.78C180.699 220.372 180.954 221.82 181.464 223.123C182.006 224.428 182.755 225.558 183.712 226.513C184.668 227.466 185.8 228.199 187.107 228.708C188.414 229.217 189.848 229.471 191.41 229.471C193.068 229.471 194.598 229.153 196.001 228.518C197.403 227.85 198.679 226.847 199.826 225.511L204.799 230.092C203.205 232.032 201.229 233.513 198.87 234.531C196.543 235.549 193.913 236.058 190.98 236.058ZM225.588 236.058C222.942 236.058 220.487 235.629 218.224 234.769C215.992 233.911 214.048 232.701 212.39 231.141C210.765 229.582 209.489 227.753 208.565 225.653C207.672 223.554 207.226 221.263 207.226 218.78C207.226 216.299 207.672 214.008 208.565 211.908C209.489 209.809 210.78 207.978 212.438 206.419C214.096 204.86 216.04 203.651 218.272 202.793C220.503 201.933 222.926 201.504 225.54 201.504C228.186 201.504 230.608 201.933 232.808 202.793C235.04 203.651 236.968 204.86 238.594 206.419C240.253 207.978 241.542 209.809 242.468 211.908C243.391 213.977 243.854 216.268 243.854 218.78C243.854 221.263 243.391 223.569 242.468 225.701C241.542 227.801 240.253 229.631 238.594 231.19C236.968 232.717 235.04 233.911 232.808 234.769C230.608 235.629 228.203 236.058 225.588 236.058ZM225.54 229.471C227.038 229.471 228.409 229.217 229.653 228.708C230.928 228.199 232.044 227.466 233 226.513C233.955 225.558 234.689 224.428 235.199 223.123C235.74 221.82 236.013 220.372 236.013 218.78C236.013 217.19 235.74 215.742 235.199 214.437C234.689 213.133 233.955 212.003 233 211.049C232.075 210.094 230.975 209.363 229.701 208.854C228.426 208.345 227.038 208.089 225.54 208.089C224.042 208.089 222.655 208.345 221.38 208.854C220.137 209.363 219.037 210.094 218.08 211.049C217.124 212.003 216.375 213.133 215.833 214.437C215.323 215.742 215.068 217.19 215.068 218.78C215.068 220.339 215.323 221.787 215.833 223.123C216.375 224.428 217.108 225.558 218.033 226.513C218.989 227.466 220.105 228.199 221.38 228.708C222.655 229.217 224.042 229.471 225.54 229.471ZM249.675 235.485V202.076H264.165C267.161 202.076 269.744 202.57 271.911 203.556C274.079 204.511 275.752 205.895 276.932 207.708C278.112 209.522 278.701 211.686 278.701 214.199C278.701 216.681 278.112 218.829 276.932 220.642C275.752 222.424 274.079 223.791 271.911 224.746C269.744 225.701 267.161 226.179 264.165 226.179H253.979L257.423 222.789V235.485H249.675ZM270.955 235.485L262.587 223.362H270.86L279.323 235.485H270.955ZM257.423 223.649L253.979 220.021H263.734C266.126 220.021 267.911 219.512 269.089 218.495C270.269 217.444 270.86 216.012 270.86 214.199C270.86 212.354 270.269 210.922 269.089 209.904C267.911 208.885 266.126 208.376 263.734 208.376H253.979L257.423 204.701V223.649ZM284.839 235.485V202.076H291.246L310.995 226.13H307.887V202.076H315.537V235.485H309.177L289.381 211.43H292.49V235.485H284.839Z" fill="#BA5499"/>
<path fill-rule="evenodd" clip-rule="evenodd" d="M203.378 59.6364C199.553 60.9091 190.85 64.3136 186.642 67.7499H141.216V117.864C149.823 101 179.183 65.2682 227.765 57.25L222.983 65.3636C230.315 62.9773 246.605 56.9636 253.109 52L233.503 76.341H229.199L233.503 78.25C241.472 88.909 258.752 110.991 264.107 114.045C266.657 120.727 265.062 136 247.371 131.705C245.299 129.477 239.338 124.641 232.069 123.114C224.099 121.841 207.873 117.864 206.725 112.136C206.566 110.545 206.534 107.077 207.682 105.932C206.088 106.727 203.378 109.655 205.291 115C201.466 120.886 195.536 137.432 202.422 156.523L221.549 138.386V124.545L230.156 125.5V140.773C218.999 151.591 193.719 174.468 181.86 179.432C167.675 170.204 138.251 149.555 134.043 140.773V59.6364H203.378ZM225.374 85.8863H231.112L235.416 93.0455L225.374 85.8863Z" fill="#BA5499"/>
</svg>
