<svg width="400" height="300" viewBox="0 0 400 300" fill="none" xmlns="http://www.w3.org/2000/svg">
<g clip-path="url(#clip0_663_299)">
<path d="M200.407 81.5135H150.621C150.333 81.5135 150.1 81.2796 150.1 80.991V75.9404C150.1 75.6519 150.333 75.418 150.621 75.418H211.692C212.109 75.418 212.357 75.8831 212.126 76.2303L153.731 164.006C153.634 164.151 153.471 164.238 153.297 164.238H148.456C148.042 164.238 147.793 163.778 148.019 163.43L200.844 82.3215C201.07 81.974 200.821 81.5135 200.407 81.5135Z" fill="#BA5499"/>
<path d="M158.874 165.981H206.931C207.219 165.981 207.453 165.747 207.453 165.458V160.408C207.453 160.119 207.219 159.885 206.931 159.885H169.317C168.902 159.885 168.653 159.423 168.882 159.075L194.232 120.561C194.524 120.117 195.229 120.369 195.219 120.901C194.521 159.308 233.524 167.003 253.896 166.006C254.173 165.993 254.378 165.764 254.378 165.487V160.423C254.378 160.129 254.122 159.893 253.829 159.9C207.054 161.038 200.508 130.217 202.239 114.604C209.966 80.1887 237.207 78.0772 253.782 80.5515C254.098 80.5988 254.378 80.3528 254.378 80.0318V74.1596C254.378 73.8872 254.168 73.6604 253.896 73.6388C232.353 71.9172 212.18 70.8356 193.549 110.251L158.435 165.177C158.212 165.524 158.462 165.981 158.874 165.981Z" fill="#BA5499"/>
<path d="M39.2832 219.099V216.372L53.4233 199.068L53.8926 200.604H39.5022V197.155H57.5527V199.883L43.4126 217.187L42.9121 215.651H57.9594V219.099H39.2832ZM65.4387 206.278H76.3254V209.632H65.4387V206.278ZM65.7516 215.682H78.1085V219.099H61.6847V197.155H77.6706V200.572H65.7516V215.682ZM82.6422 219.099V197.155H91.6518C93.5914 197.155 95.2494 197.469 96.6259 198.096C98.0232 198.723 99.0973 199.621 99.8481 200.792C100.599 201.962 100.974 203.352 100.974 204.961C100.974 206.57 100.599 207.96 99.8481 209.13C99.0973 210.301 98.0232 211.199 96.6259 211.826C95.2494 212.453 93.5914 212.767 91.6518 212.767H84.8946L86.709 210.854V219.099H82.6422ZM86.709 211.293L84.8946 209.318H91.4641C93.2577 209.318 94.6029 208.942 95.4997 208.19C96.4173 207.417 96.8762 206.34 96.8762 204.961C96.8762 203.561 96.4173 202.484 95.4997 201.732C94.6029 200.98 93.2577 200.604 91.4641 200.604H84.8946L86.709 198.597V211.293ZM120.427 197.155H124.494V219.099H120.427V197.155ZM109.102 219.099H105.036V197.155H109.102V219.099ZM120.74 209.695H108.758V206.215H120.74V209.695ZM135.743 219.099V210.416L136.65 212.923L127.14 197.155H131.488L139.121 209.851H136.681L144.377 197.155H148.381L138.871 212.923L139.809 210.416V219.099H135.743ZM150.769 219.099V197.155H159.779C161.719 197.155 163.377 197.469 164.753 198.096C166.15 198.723 167.224 199.621 167.975 200.792C168.726 201.962 169.101 203.352 169.101 204.961C169.101 206.57 168.726 207.96 167.975 209.13C167.224 210.28 166.15 211.168 164.753 211.795C163.377 212.401 161.719 212.704 159.779 212.704H153.022L154.836 210.854V219.099H150.769ZM165.097 219.099L159.56 211.137H163.908L169.477 219.099H165.097ZM154.836 211.293L153.022 209.35H159.591C161.385 209.35 162.73 208.963 163.627 208.19C164.544 207.417 165.003 206.34 165.003 204.961C165.003 203.561 164.544 202.484 163.627 201.732C162.73 200.98 161.385 200.604 159.591 200.604H153.022L154.836 198.597V211.293ZM183.068 219.413C180.064 219.413 177.708 218.566 175.998 216.873C174.308 215.181 173.464 212.735 173.464 209.538V197.155H177.531V209.381C177.531 211.638 178.01 213.279 178.97 214.303C179.95 215.327 181.326 215.839 183.099 215.839C184.872 215.839 186.238 215.327 187.197 214.303C188.156 213.279 188.636 211.638 188.636 209.381V197.155H192.64V209.538C192.64 212.735 191.785 215.181 190.075 216.873C188.386 218.566 186.05 219.413 183.068 219.413ZM205.124 219.413C203.414 219.413 201.777 219.172 200.213 218.692C198.649 218.19 197.408 217.553 196.49 216.779L197.898 213.613C198.774 214.303 199.858 214.878 201.151 215.337C202.444 215.797 203.769 216.027 205.124 216.027C206.271 216.027 207.2 215.902 207.909 215.651C208.618 215.4 209.139 215.066 209.473 214.648C209.807 214.209 209.973 213.718 209.973 213.174C209.973 212.506 209.734 211.973 209.254 211.576C208.774 211.158 208.148 210.834 207.377 210.604C206.626 210.353 205.781 210.123 204.843 209.914C203.925 209.705 202.997 209.465 202.059 209.193C201.141 208.9 200.296 208.535 199.525 208.096C198.774 207.636 198.159 207.03 197.679 206.278C197.199 205.525 196.959 204.564 196.959 203.394C196.959 202.202 197.272 201.116 197.898 200.133C198.544 199.13 199.514 198.336 200.807 197.751C202.121 197.145 203.779 196.842 205.781 196.842C207.095 196.842 208.399 197.009 209.692 197.343C210.985 197.678 212.112 198.158 213.07 198.785L211.788 201.952C210.808 201.366 209.796 200.938 208.753 200.666C207.711 200.374 206.709 200.227 205.75 200.227C204.624 200.227 203.706 200.363 202.997 200.635C202.309 200.907 201.798 201.262 201.464 201.701C201.151 202.14 200.995 202.641 200.995 203.206C200.995 203.874 201.224 204.418 201.683 204.836C202.163 205.233 202.778 205.546 203.529 205.776C204.301 206.006 205.156 206.236 206.094 206.466C207.033 206.675 207.961 206.915 208.878 207.187C209.817 207.458 210.662 207.814 211.412 208.253C212.185 208.691 212.8 209.287 213.259 210.039C213.739 210.792 213.979 211.743 213.979 212.892C213.979 214.062 213.655 215.149 213.009 216.152C212.383 217.135 211.412 217.929 210.098 218.535C208.785 219.12 207.127 219.413 205.124 219.413ZM236.791 219.413C235.123 219.413 233.569 219.141 232.13 218.598C230.712 218.033 229.471 217.25 228.407 216.246C227.364 215.222 226.551 214.021 225.967 212.641C225.383 211.262 225.091 209.757 225.091 208.127C225.091 206.497 225.383 204.992 225.967 203.613C226.551 202.234 227.375 201.042 228.438 200.039C229.502 199.015 230.743 198.232 232.161 197.688C233.579 197.124 235.133 196.842 236.822 196.842C238.616 196.842 240.253 197.155 241.734 197.782C243.215 198.388 244.466 199.297 245.488 200.51L242.86 202.986C242.068 202.129 241.181 201.492 240.201 201.074C239.221 200.635 238.157 200.415 237.01 200.415C235.863 200.415 234.81 200.604 233.85 200.98C232.912 201.356 232.088 201.889 231.379 202.579C230.691 203.268 230.149 204.083 229.752 205.024C229.377 205.964 229.189 206.999 229.189 208.127C229.189 209.256 229.377 210.29 229.752 211.231C230.149 212.171 230.691 212.986 231.379 213.676C232.088 214.365 232.912 214.898 233.85 215.275C234.81 215.651 235.863 215.839 237.01 215.839C238.157 215.839 239.221 215.63 240.201 215.212C241.181 214.773 242.068 214.115 242.86 213.237L245.488 215.745C244.466 216.936 243.215 217.845 241.734 218.472C240.253 219.099 238.606 219.413 236.791 219.413ZM245.83 219.099L255.685 197.155H259.689L269.574 219.099H265.32L256.842 199.318H258.469L250.022 219.099H245.83ZM250.366 214.021L251.461 210.823H263.286L264.381 214.021H250.366ZM272.359 219.099V197.155H281.368C283.308 197.155 284.966 197.469 286.342 198.096C287.74 198.723 288.814 199.621 289.564 200.792C290.315 201.962 290.691 203.352 290.691 204.961C290.691 206.57 290.315 207.96 289.564 209.13C288.814 210.301 287.74 211.199 286.342 211.826C284.966 212.453 283.308 212.767 281.368 212.767H274.611L276.425 210.854V219.099H272.359ZM276.425 211.293L274.611 209.318H281.18C282.974 209.318 284.319 208.942 285.216 208.19C286.134 207.417 286.593 206.34 286.593 204.961C286.593 203.561 286.134 202.484 285.216 201.732C284.319 200.98 282.974 200.604 281.18 200.604H274.611L276.425 198.597V211.293ZM294.752 219.099V197.155H298.819V219.099H294.752ZM309.184 219.099V200.604H301.927V197.155H320.509V200.604H313.251V219.099H309.184ZM319.364 219.099L329.218 197.155H333.222L343.108 219.099H338.853L330.375 199.318H332.002L323.556 219.099H319.364ZM323.9 214.021L324.995 210.823H336.82L337.915 214.021H323.9ZM345.894 219.099V197.155H349.961V215.651H361.41V219.099H345.894Z" fill="#BA5499"/>
</g>
<defs>
<clipPath id="clip0_663_299">
<rect width="325" height="155" fill="white" transform="translate(38 73)"/>
</clipPath>
</defs>
</svg>
