<svg width="400" height="300" viewBox="0 0 400 300" fill="none" xmlns="http://www.w3.org/2000/svg">
<path fill-rule="evenodd" clip-rule="evenodd" d="M394.494 184.544L394.574 184.923C394.597 185.032 394.566 185.143 394.487 185.222C392.355 187.341 386.904 190.756 381.122 188.356C378.632 187.537 373.35 184.897 373.852 175.47C374.052 169.453 379.408 162.543 389.195 166.394C391.452 167.465 395.701 171.247 394.9 177.886C394.88 178.052 394.738 178.177 394.571 178.177H378.54C378.38 178.177 378.241 178.289 378.218 178.448C377.855 180.852 378.479 185.512 383.73 186.902C385.395 187.285 389.445 187.353 392.371 184.577C392.393 184.556 392.418 184.538 392.445 184.524C392.772 184.36 393.1 184.342 393.435 184.323C393.627 184.313 393.822 184.302 394.02 184.263C394.228 184.222 394.451 184.337 394.494 184.544ZM378.071 175.9C377.422 171.325 381.394 164.349 387.342 167.699C388.766 168.5 391.458 171.241 391.081 175.872C391.068 176.043 390.923 176.173 390.753 176.173H378.394C378.233 176.173 378.094 176.059 378.071 175.9Z" fill="#BA5499"/>
<path d="M366.03 169.401C367.393 171.326 369.138 170.905 369.84 170.454C368.186 163.985 356.202 162.481 350.836 170.454C346.324 177.774 351.321 185.747 353.694 186.8C359.912 191.373 366.447 188.271 368.938 186.148V184.644H367.785C362.77 188.054 357.973 186.065 356.202 184.644C351.348 180.232 353.578 173.345 355.299 170.454C359.672 164.838 364.275 167.412 366.03 169.401Z" fill="#BA5499"/>
<path d="M327.666 165.939H324.457V188.253H328.117L327.867 179.277C327.666 170.101 329.755 168.965 331.126 168.346C335.288 166.09 339.199 168.797 339.199 171.355V188.253H342.96V174.313C343.04 169.941 341.823 167.945 341.205 167.494C335.669 162.961 330.173 166.307 328.117 168.547C328.318 168.226 327.9 166.675 327.666 165.939Z" fill="#BA5499"/>
<path d="M261.128 159.371L262.482 161.477H263.635L264.989 159.371C265.109 159.09 265.052 158.468 264.838 158.067C264.437 157.315 263.401 156.814 262.933 156.663C262.452 156.503 261.78 157.416 261.128 158.067C260.777 158.569 260.961 159.02 261.128 159.371Z" fill="#BA5499"/>
<path d="M253.009 156.868C253.972 156.828 254.714 158.021 254.965 158.623L254.564 159.375H238.769V170.557L248.948 170.758C251.515 169.835 252.324 171.008 252.407 171.71L248.948 172.763H238.769L238.568 188.107H234.707V156.868H253.009Z" fill="#BA5499"/>
<path d="M223.874 188.355L226.431 186.7C225.829 185.777 224.425 184.293 223.423 184.293C221.517 184.443 220.715 186.148 220.715 186.7L221.668 188.104C222.47 189.227 223.473 188.739 223.874 188.355Z" fill="#BA5499"/>
<path fill-rule="evenodd" clip-rule="evenodd" d="M244.807 141.234L244.184 140.57C244.154 140.538 244.146 140.491 244.163 140.45L256.821 110.883C257.221 109.898 258.452 108.52 260.174 110.874C260.178 110.88 260.182 110.886 260.185 110.892L274.375 140.422C274.401 140.475 274.381 140.539 274.328 140.566C272.935 141.28 270.01 141.869 268.712 138.83C268.707 138.819 268.704 138.807 268.703 138.794C268.478 135.701 266.057 130.003 258.149 131.787C258.133 131.791 258.117 131.791 258.101 131.788C255.321 131.206 250.249 130.997 249.149 133.397C248.385 134.676 247.14 137.59 246.848 139.28C246.844 139.303 246.834 139.323 246.818 139.339L244.968 141.236C244.924 141.282 244.85 141.281 244.807 141.234ZM257.422 114.519L251.07 129.227C251.038 129.3 251.092 129.382 251.172 129.382H264.317C264.398 129.382 264.452 129.298 264.418 129.224L257.626 114.516C257.585 114.429 257.46 114.43 257.422 114.519Z" fill="#BA5499"/>
<path d="M183.045 109.629H158.505C158.463 109.629 158.423 109.653 158.405 109.692C157.789 110.997 158.535 111.812 159.014 112.073C159.03 112.082 159.047 112.086 159.065 112.086H176.676C176.766 112.086 176.819 112.187 176.768 112.261L157.202 140.693C157.151 140.767 157.204 140.868 157.294 140.868H183.929C183.977 140.868 184.019 140.836 184.034 140.791C184.58 139.099 183.768 138.373 183.272 138.215C183.261 138.212 183.251 138.21 183.24 138.21H163.962C163.873 138.21 163.82 138.11 163.87 138.036L183.137 109.803C183.188 109.729 183.135 109.629 183.045 109.629Z" fill="#BA5499"/>
<path d="M211.164 109.73H191.494C191.433 109.73 191.383 109.78 191.383 109.842V140.758C191.383 140.819 191.433 140.869 191.494 140.869H211.181C211.218 140.869 211.252 140.851 211.272 140.82C211.859 139.897 211.232 138.512 210.838 138.512L195.604 138.214C195.543 138.212 195.495 138.163 195.495 138.102V125.336C195.495 125.274 195.544 125.225 195.606 125.225H207.97C207.977 125.225 207.984 125.224 207.99 125.223C209.583 124.936 209.132 123.169 208.682 123.169H195.606C195.544 123.169 195.495 123.119 195.495 123.057V111.948C195.495 111.886 195.544 111.836 195.606 111.836H209.835C211.582 111.836 211.529 110.522 211.266 109.801C211.251 109.758 211.21 109.73 211.164 109.73Z" fill="#BA5499"/>
<path d="M39.1079 150.654C42.3758 154.511 84.6125 159.12 104.763 165.279C104.779 165.284 104.794 165.292 104.808 165.302C106.593 166.64 108.26 166.491 108.886 166.244C108.895 166.241 108.902 166.236 108.91 166.231C110.982 164.874 113.787 162.044 114.063 161.325C114.303 160.703 114.542 160.263 114.694 159.789C114.708 159.746 114.7 159.699 114.673 159.662L112.779 157.04C112.766 157.022 112.75 157.008 112.73 156.997C100.201 150.356 85.5274 126.264 79.3646 111.533C77.1985 107.402 73.9492 109.812 72.5954 111.533L61.4207 128.671C61.4159 128.678 61.4116 128.687 61.4082 128.695C58.8061 134.88 55.4561 128.702 52.2542 126.288C52.2429 126.279 52.23 126.273 52.2167 126.268C48.6234 124.982 46.4917 132.466 45.8716 136.39C45.87 136.4 45.8696 136.409 45.87 136.419C46.1831 143.012 42.0091 145.402 39.8669 145.778C39.8569 145.78 39.847 145.783 39.8375 145.787C36.2566 147.227 37.8391 149.613 39.0894 150.636C39.0966 150.642 39.1018 150.647 39.1079 150.654Z" fill="#BA5499"/>
<path d="M9.41369 160.675C-3.02146 154.056 21.4814 148.306 35.4377 145.883C24.3261 151.298 36.9922 155.259 44.7142 156.563C60.3587 159.732 84.3269 163.834 95.609 170.453C104.233 177.824 73.8972 185.646 46.9706 188.153C54.0708 186.749 58.4365 183.624 59.4059 182.186C64.5807 176.249 30.1229 167.494 9.41369 160.675Z" fill="#BA5499"/>
<rect x="133.266" y="99" width="1.60457" height="102.492" fill="#BA5499"/>
<path fill-rule="evenodd" clip-rule="evenodd" d="M218.453 140.711V109.645C218.453 109.583 218.503 109.533 218.565 109.533H232.381C232.389 109.533 232.397 109.534 232.404 109.536C240.178 111.169 241.035 121.402 232.839 123.899C232.727 123.933 232.736 124.105 232.849 124.134C245.361 127.289 240.37 140.029 232.393 140.822H218.565C218.503 140.822 218.453 140.772 218.453 140.711ZM222.462 121.745V111.503C222.462 111.442 222.512 111.392 222.574 111.392C223.225 111.389 223.884 111.365 224.544 111.342C227.654 111.229 230.766 111.116 233.143 113.247C237.457 117.116 232.595 124.824 223.475 122.977C223.469 122.976 223.462 122.974 223.456 122.971C223.066 122.807 222.648 122.135 222.474 121.795C222.466 121.779 222.462 121.762 222.462 121.745ZM222.515 138.486V126.272C222.515 126.255 222.519 126.238 222.527 126.223C222.731 125.819 223.23 125.012 223.694 124.818C223.7 124.815 223.707 124.813 223.713 124.812C234.52 122.613 240.282 131.786 235.17 136.39C232.355 138.925 228.667 138.791 224.981 138.657C224.193 138.629 223.405 138.6 222.626 138.598C222.565 138.598 222.515 138.548 222.515 138.486Z" fill="#BA5499"/>
<path d="M178.846 156.812C183.86 157.213 186.167 160.773 187.019 162.879C185.615 163.641 184.027 162.929 183.409 162.477C179.397 157.423 173.18 158.098 170.572 159.068C160.544 161.996 160.744 172.155 162.098 176.868C167.794 191.029 180.216 187.215 185.715 183.537H187.47L187.019 184.841C182.647 188.893 174.868 189.304 171.525 189.003C157.525 186.797 156.098 175.08 157.134 169.497C159.059 155.979 170.572 156.15 178.846 156.812Z" fill="#BA5499"/>
<path fill-rule="evenodd" clip-rule="evenodd" d="M202.765 189.055C209.245 189.055 214.498 183.734 214.498 177.171C214.498 170.608 209.245 165.287 202.765 165.287C196.284 165.287 191.031 170.608 191.031 177.171C191.031 183.734 196.284 189.055 202.765 189.055ZM203.015 167.143C200.324 167.177 195.945 168.347 195.945 175.968C195.945 176.004 195.945 176.04 195.945 176.076C195.944 179.821 195.943 187.119 203.015 187C205.689 187.134 210.857 185.215 210.135 176.47C209.878 173.361 209.112 167.143 203.015 167.143Z" fill="#BA5499"/>
<path d="M264.836 165.988H261.326V188.252H264.836V165.988Z" fill="#BA5499"/>
<path d="M274.016 166.039H277.275L277.676 168.245L282.139 166.039C287.634 162.95 292.167 167.643 292.518 170.802V188.102H288.557V177.12C289.279 169.057 285.749 167.443 283.894 167.643C278.559 167.363 277.526 172.674 277.676 175.365L277.275 188.102H274.016V166.039Z" fill="#BA5499"/>
<path fill-rule="evenodd" clip-rule="evenodd" d="M301.646 171.303L299.49 169.298C300.359 167.877 302.598 165.843 307.161 165.386C311.323 164.97 315.936 166.59 316.438 169.949L316.638 188.251C316.103 188.302 314.943 188.452 314.582 188.653C314.114 188.586 313.158 188.111 313.078 186.747C310.989 187.75 306.148 189.535 303.501 188.653C301.562 188.185 297.765 185.945 298.086 180.73C298.604 176.785 302.137 170.1 312.126 174.913L313.429 175.666C313.73 173.102 313.429 167.242 309.017 166.941C307.329 166.891 303.491 167.693 301.646 171.303ZM307.613 186.948C310.853 186.948 313.479 184.322 313.479 181.081C313.479 177.841 310.853 175.215 307.613 175.215C304.373 175.215 301.746 177.841 301.746 181.081C301.746 184.322 304.373 186.948 307.613 186.948Z" fill="#BA5499"/>
</svg>
