<svg width="400" height="300" viewBox="0 0 400 300" fill="none" xmlns="http://www.w3.org/2000/svg">
<path d="M104.924 113.167V92.6914C170.423 108.474 169.982 190.375 104.924 204.878V185.256C135.799 182.483 131.609 150.065 112.863 146.439C133.373 135.988 121.464 112.313 104.924 113.167Z" fill="#BA5499"/>
<path d="M82.8711 112.314V92.2656H92.1334V112.314H82.8711Z" fill="#BA5499"/>
<path d="M92.1334 185.684H82.8711V205.306H92.1334V185.684Z" fill="#BA5499"/>
<path d="M79.5625 140.895V124.898H101.837C113.304 127.458 109.776 139.828 101.837 140.895H79.5625Z" fill="#BA5499"/>
<path d="M79.3418 172.886V154.117H103.562C116.032 157.12 112.195 171.635 103.562 172.886H79.3418Z" fill="#BA5499"/>
<path d="M69.6393 92.9062H37.4414V205.306H69.6393V185.257H53.9815V173.954H63.9055V123.832H53.9815V112.102H69.6393V92.9062Z" fill="#BA5499"/>
<path d="M184.219 141.358H168.924V101.338H184.199C188.415 101.338 192.045 102.139 195.089 103.742C198.147 105.331 200.505 107.624 202.161 110.62C203.818 113.603 204.646 117.173 204.646 121.328C204.646 125.497 203.818 129.08 202.161 132.076C200.518 135.072 198.168 137.372 195.11 138.974C192.052 140.563 188.422 141.358 184.219 141.358ZM178.925 133.112H183.835C186.152 133.112 188.112 132.734 189.715 131.978C191.331 131.21 192.55 129.965 193.372 128.246C194.207 126.513 194.625 124.208 194.625 121.328C194.625 118.449 194.207 116.157 193.372 114.45C192.537 112.73 191.304 111.493 189.675 110.737C188.058 109.969 186.065 109.584 183.694 109.584H178.925V133.112ZM247.158 141.358V101.338H264.252C267.35 101.338 270.024 101.924 272.274 103.097C274.536 104.256 276.281 105.878 277.507 107.962C278.732 110.034 279.345 112.444 279.345 115.193C279.345 117.954 278.719 120.371 277.466 122.442C276.227 124.5 274.456 126.096 272.152 127.23C269.849 128.363 267.114 128.93 263.949 128.93H253.402V121.309H262.09C263.599 121.309 264.858 121.055 265.868 120.547C266.892 120.039 267.667 119.329 268.192 118.417C268.717 117.492 268.98 116.417 268.98 115.193C268.98 113.955 268.717 112.887 268.192 111.988C267.667 111.076 266.892 110.373 265.868 109.877C264.845 109.382 263.585 109.135 262.09 109.135H257.16V141.358H247.158ZM284.275 141.358V101.338H301.369C304.467 101.338 307.141 101.879 309.39 102.96C311.654 104.028 313.398 105.565 314.624 107.572C315.849 109.565 316.462 111.929 316.462 114.665C316.462 117.44 315.836 119.798 314.583 121.739C313.33 123.667 311.553 125.139 309.249 126.155C306.946 127.158 304.218 127.66 301.066 127.66H290.256V120.039H299.207C300.716 120.039 301.975 119.85 302.985 119.472C304.009 119.081 304.784 118.495 305.309 117.713C305.834 116.919 306.097 115.903 306.097 114.665C306.097 113.427 305.834 112.405 305.309 111.597C304.784 110.776 304.009 110.164 302.985 109.76C301.962 109.343 300.702 109.135 299.207 109.135H294.277V141.358H284.275ZM307.572 123.068L317.877 141.358H306.966L296.863 123.068H307.572ZM361.005 121.348C361.005 125.751 360.128 129.483 358.377 132.545C356.626 135.606 354.255 137.931 351.267 139.521C348.288 141.11 344.948 141.905 341.244 141.905C337.526 141.905 334.179 141.104 331.202 139.501C328.225 137.899 325.861 135.574 324.11 132.525C322.372 129.464 321.504 125.738 321.504 121.348C321.504 116.945 322.372 113.212 324.11 110.151C325.861 107.09 328.225 104.764 331.202 103.175C334.179 101.586 337.526 100.791 341.244 100.791C344.948 100.791 348.288 101.586 351.267 103.175C354.255 104.764 356.626 107.09 358.377 110.151C360.128 113.212 361.005 116.945 361.005 121.348ZM350.78 121.348C350.78 118.743 350.396 116.541 349.63 114.743C348.874 112.945 347.783 111.584 346.356 110.659C344.942 109.734 343.237 109.272 341.244 109.272C339.264 109.272 337.56 109.734 336.132 110.659C334.704 111.584 333.606 112.945 332.839 114.743C332.084 116.541 331.707 118.743 331.707 121.348C331.707 123.953 332.084 126.155 332.839 127.953C333.606 129.75 334.704 131.112 336.132 132.037C337.56 132.962 339.264 133.424 341.244 133.424C343.237 133.424 344.942 132.962 346.356 132.037C347.783 131.112 348.874 129.75 349.63 127.953C350.396 126.155 350.78 123.953 350.78 121.348Z" fill="#BA5499"/>
<path d="M235.923 117.646H211.885V141.961H237.908V133.856H221.147V125.111H235.923V117.646Z" fill="#BA5499"/>
<path d="M212.104 109.541V102.289H237.245V109.541H212.104Z" fill="#BA5499"/>
<path d="M221.563 200.061L218.548 191.03H203.3L200.286 200.061H195.262L208.619 161.193H213.466L226.882 200.061H221.563ZM207.023 179.827L204.778 186.515H217.012L214.766 179.827L210.924 167.823L207.023 179.827ZM234.397 200.061V161.193H246.218C250.079 161.193 252.916 162.107 254.729 163.936C256.58 165.728 257.506 168.147 257.506 171.196V172.453C257.506 174.13 257.112 175.616 256.324 176.912C255.536 178.207 254.394 179.236 252.896 179.998C254.985 180.646 256.561 181.713 257.624 183.199C258.728 184.647 259.279 186.4 259.279 188.458V189.716C259.279 192.84 258.334 195.355 256.442 197.26C254.591 199.128 251.675 200.061 247.695 200.061H234.397ZM246.218 165.766H239.539V178.055H246.218C248.188 178.055 249.665 177.579 250.65 176.626C251.675 175.635 252.187 174.282 252.187 172.567V171.196C252.187 169.519 251.675 168.204 250.65 167.252C249.665 166.261 248.188 165.766 246.218 165.766ZM247.695 182.628H239.539V195.546H247.695C249.784 195.546 251.34 195.031 252.364 194.002C253.428 192.974 253.96 191.545 253.96 189.716V188.344C253.96 186.591 253.428 185.2 252.364 184.171C251.34 183.142 249.784 182.628 247.695 182.628ZM277.185 196.174C279.668 196.174 281.579 195.66 282.918 194.631C284.258 193.564 284.928 192.021 284.928 190.001C284.928 188.325 284.455 186.915 283.51 185.772C282.603 184.628 281.106 183.752 279.018 183.142L274.23 181.77C271.236 180.894 269.029 179.579 267.611 177.826C266.192 176.035 265.483 173.844 265.483 171.253C265.483 169.271 265.877 167.48 266.665 165.88C267.492 164.279 268.793 163.003 270.566 162.05C272.378 161.097 274.743 160.621 277.658 160.621C279.431 160.621 281.264 160.831 283.155 161.25C285.046 161.631 286.957 162.26 288.888 163.136L287.233 167.423C285.342 166.623 283.628 166.051 282.091 165.708C280.594 165.327 279.156 165.137 277.776 165.137C275.53 165.137 273.777 165.594 272.516 166.509C271.295 167.385 270.684 168.852 270.684 170.91C270.684 172.396 271.098 173.653 271.925 174.683C272.753 175.673 274.23 176.492 276.358 177.14L281.145 178.512C287.134 180.227 290.129 183.923 290.129 189.601C290.129 192.878 289.105 195.546 287.056 197.603C285.007 199.623 281.717 200.633 277.185 200.633C275.334 200.633 273.363 200.424 271.275 200.004C269.226 199.547 267.098 198.842 264.892 197.889L266.488 193.659C268.576 194.574 270.448 195.222 272.103 195.603C273.797 195.984 275.491 196.174 277.185 196.174Z" fill="#BA5499"/>
<path d="M197.572 195.432V200.062H175.586V161.193H180.728V195.432H197.572Z" fill="#BA5499"/>
</svg>
