<svg width="400" height="300" viewBox="0 0 400 300" fill="none" xmlns="http://www.w3.org/2000/svg">
<path d="M226.682 104.898L194.125 137.312L221.806 165.997H254.363V133.109L226.682 104.898Z" fill="#BA5499"/>
<path d="M253.931 58H199.287L146.076 111.21V165.855H153.104L253.931 64.741V58Z" fill="#BA5499"/>
<path d="M180.642 58.1406H145.934V92.2756H152.414L180.642 64.021V58.1406Z" fill="#BA5499"/>
<path d="M255.071 180.914H229.541V186.794H246.896L228.824 208.738V214.045H255.214L256.075 208.021H237.717L255.071 186.794V180.914Z" fill="#BA5499"/>
<path d="M182.357 180.773V213.904H188.381V188.375L202.293 213.904H210.469V181.204H204.158L204.445 205.442L190.963 180.773H182.357Z" fill="#BA5499"/>
<path d="M139.617 213.758V180.914H163.139V186.794H146.788V193.679H162.278V199.559H146.788V208.021H163.999L163.139 213.758H139.617Z" fill="#BA5499"/>
<path d="M92 213.904V180.773H99.1712V195.403L112.223 180.773H120.828L107.49 194.542L121.259 213.904H112.797L102.47 199.419L99.1712 202.431V213.904H92Z" fill="#BA5499"/>
<path fill-rule="evenodd" clip-rule="evenodd" d="M291.218 214.129C300.486 214.129 307.999 205.891 307.999 195.728C307.999 185.566 300.486 177.328 291.218 177.328C281.95 177.328 274.438 185.566 274.438 195.728C274.438 205.891 281.95 214.129 291.218 214.129ZM291.812 208.388C297.143 208.388 301.465 202.72 301.465 195.728C301.465 188.735 297.143 183.067 291.812 183.067C286.481 183.067 282.16 188.735 282.16 195.728C282.16 202.72 286.481 208.388 291.812 208.388Z" fill="#BA5499"/>
<path d="M162.421 230.412H154.045V242.291H162.421L162.878 240.159H156.634V237.265H162.421V234.981H156.634V232.392H162.421V230.412Z" fill="#BA5499"/>
<path d="M138.204 230.412H135.311L139.423 242.291H142.773L146.885 230.412H144.296L141.098 240.311L138.204 230.412Z" fill="#BA5499"/>
<path d="M170.188 230.412V242.444H172.777L172.472 233.306L177.498 242.444H180.544V230.412H178.412V239.245L173.538 230.412H170.188Z" fill="#BA5499"/>
<path d="M187.854 232.544V230.412H197.753V232.544H194.25V242.291H191.661V232.544H187.854Z" fill="#BA5499"/>
<path d="M207.497 230.107H204.908V238.636C205.365 242.596 208.106 242.596 210.391 242.596C213.437 242.596 214.807 240.921 215.112 238.636V230.26H212.523L212.371 238.636C211.914 241.073 207.954 240.464 207.802 238.636L207.497 230.107Z" fill="#BA5499"/>
<path fill-rule="evenodd" clip-rule="evenodd" d="M224.861 242.444H222.271V230.412H228.668C231.105 230.869 233.602 233.732 230.191 236.656C231.105 236.961 231.775 238.667 231.409 240.007C231.359 240.819 231.348 242.444 231.714 242.444H229.125C228.922 241.53 228.82 239.55 228.82 238.788C228.82 238.325 228.302 237.722 227.45 237.722H224.861V242.444ZM225.011 232.543H227.905C228.971 232.696 229.885 234.828 227.905 235.437H225.011V232.543Z" fill="#BA5499"/>
<path d="M239.023 242.291V230.412H247.552V232.697H241.612V235.133H247.247V237.265H241.612V240.311H247.857L247.552 242.291H239.023Z" fill="#BA5499"/>
<path d="M262.172 233.585H264.608C264.456 232.368 263.695 231.454 262.781 230.844C258.973 229.018 256.232 230.997 255.775 232.367C254.629 235.806 257.45 236.784 259.278 237.241C261.106 237.545 262.019 238.205 262.172 238.763C262.781 241.048 258.06 240.896 257.755 238.916H255.166C255.288 242.815 259.786 242.876 262.019 242.419C264.822 241.566 265.116 239.119 264.913 238.002C264.548 235.931 260.953 235.108 259.125 234.499C257.755 233.89 258.213 232.214 259.735 232.215C261.257 232.215 261.765 232.976 262.172 233.585Z" fill="#BA5499"/>
</svg>
