<svg width="741" height="293" viewBox="0 0 741 293" fill="none" xmlns="http://www.w3.org/2000/svg">
<path d="M154 59V11C302.5 48 301.5 240 154 274V228C224 221.5 214.5 145.5 172 137C218.5 112.5 191.5 57 154 59Z" fill="#AB2B86"/>
<path d="M104 57V10H125V57H104Z" fill="#AB2B86"/>
<path d="M125 229H104V275H125V229Z" fill="#AB2B86"/>
<path d="M96.5 124V86.5H147C173 92.5 165 121.5 147 124H96.5Z" fill="#AB2B86"/>
<path d="M96 199V155H150.912C179.184 162.04 170.485 196.067 150.912 199H96Z" fill="#AB2B86"/>
<path d="M74 11.5H1V275H74V228H38.5V201.5H61V84H38.5V56.5H74V11.5Z" fill="#AB2B86"/>
<path d="M333.778 125H299.1V31.1818H333.733C343.292 31.1818 351.522 33.06 358.424 36.8164C365.357 40.5423 370.701 45.9173 374.457 52.9414C378.214 59.935 380.092 68.3029 380.092 78.0451C380.092 87.8178 378.214 96.2163 374.457 103.24C370.732 110.265 365.402 115.655 358.47 119.411C351.537 123.137 343.307 125 333.778 125ZM321.776 105.668H332.908C338.161 105.668 342.604 104.783 346.239 103.011C349.903 101.21 352.667 98.293 354.53 94.2617C356.424 90.1999 357.37 84.7944 357.37 78.0451C357.37 71.2958 356.424 65.9208 354.53 61.9201C352.637 57.8888 349.842 54.9876 346.147 53.2163C342.482 51.4144 337.962 50.5135 332.587 50.5135H321.776V105.668ZM476.475 125V31.1818H515.23C522.255 31.1818 528.317 32.5561 533.417 35.3047C538.548 38.0227 542.502 41.8249 545.282 46.7113C548.061 51.5671 549.45 57.217 549.45 63.6609C549.45 70.1353 548.03 75.8004 545.19 80.6562C542.38 85.4815 538.364 89.2227 533.142 91.8796C527.92 94.5366 521.72 95.8651 514.543 95.8651H490.631V77.9993H510.329C513.749 77.9993 516.605 77.4038 518.895 76.2127C521.216 75.0217 522.972 73.3572 524.163 71.2195C525.354 69.0511 525.95 66.5316 525.95 63.6609C525.95 60.7596 525.354 58.2553 524.163 56.1481C522.972 54.0103 521.216 52.3612 518.895 51.2006C516.574 50.0401 513.719 49.4599 510.329 49.4599H499.151V125H476.475ZM560.628 125V31.1818H599.383C606.407 31.1818 612.469 32.4492 617.569 34.984C622.7 37.4883 626.655 41.092 629.434 45.7951C632.213 50.4677 633.603 56.0106 633.603 62.424C633.603 68.929 632.183 74.4567 629.342 79.0071C626.502 83.527 622.471 86.978 617.249 89.3601C612.026 91.7116 605.842 92.8874 598.696 92.8874H574.188V75.0217H594.481C597.902 75.0217 600.757 74.5788 603.048 73.6932C605.369 72.777 607.125 71.4027 608.316 69.5703C609.507 67.7074 610.102 65.3253 610.102 62.424C610.102 59.5227 609.507 57.1254 608.316 55.2319C607.125 53.3079 605.369 51.8725 603.048 50.9258C600.727 49.9485 597.871 49.4599 594.481 49.4599H583.304V125H560.628ZM613.446 82.1222L636.809 125H612.072L589.167 82.1222H613.446ZM734.59 78.0909C734.59 88.4134 732.605 97.163 728.635 104.34C724.665 111.517 719.29 116.968 712.51 120.694C705.76 124.42 698.187 126.283 689.788 126.283C681.359 126.283 673.77 124.404 667.021 120.648C660.271 116.892 654.912 111.44 650.942 104.294C647.002 97.1172 645.032 88.3828 645.032 78.0909C645.032 67.7685 647.002 59.0188 650.942 51.842C654.912 44.6651 660.271 39.2138 667.021 35.4879C673.77 31.7621 681.359 29.8991 689.788 29.8991C698.187 29.8991 705.76 31.7621 712.51 35.4879C719.29 39.2138 724.665 44.6651 728.635 51.842C732.605 59.0188 734.59 67.7685 734.59 78.0909ZM711.41 78.0909C711.41 71.983 710.54 66.8217 708.799 62.6072C707.089 58.3928 704.615 55.2013 701.378 53.033C698.171 50.8647 694.308 49.7805 689.788 49.7805C685.299 49.7805 681.436 50.8647 678.198 53.033C674.961 55.2013 672.472 58.3928 670.731 62.6072C669.021 66.8217 668.166 71.983 668.166 78.0909C668.166 84.1989 669.021 89.3601 670.731 93.5746C672.472 97.7891 674.961 100.98 678.198 103.149C681.436 105.317 685.299 106.401 689.788 106.401C694.308 106.401 698.171 105.317 701.378 103.149C704.615 100.98 707.089 97.7891 708.799 93.5746C710.54 89.3601 711.41 84.1989 711.41 78.0909Z" fill="#AB2B86"/>
<path d="M451 69.5H396.5V126.5H455.5V107.5H417.5V87H451V69.5Z" fill="#AB2B86"/>
<path d="M397 50.5V33.5H454V50.5H397Z" fill="#AB2B86"/>
<path d="M418.444 263L411.61 241.828H377.038L370.204 263H358.814L389.098 171.88H400.086L430.504 263H418.444ZM385.48 215.564L380.388 231.242H408.126L403.034 215.564L394.324 187.424L385.48 215.564ZM447.542 263V171.88H474.342C483.097 171.88 489.529 174.024 493.638 178.312C497.837 182.511 499.936 188.183 499.936 195.33V198.278C499.936 202.209 499.043 205.693 497.256 208.73C495.469 211.767 492.879 214.179 489.484 215.966C494.219 217.485 497.792 219.986 500.204 223.47C502.705 226.865 503.956 230.974 503.956 235.798V238.746C503.956 246.071 501.812 251.967 497.524 256.434C493.325 260.811 486.715 263 477.692 263H447.542ZM474.342 182.6H459.2V211.41H474.342C478.809 211.41 482.159 210.293 484.392 208.06C486.715 205.737 487.876 202.566 487.876 198.546V195.33C487.876 191.399 486.715 188.317 484.392 186.084C482.159 183.761 478.809 182.6 474.342 182.6ZM477.692 222.13H459.2V252.414H477.692C482.427 252.414 485.955 251.208 488.278 248.796C490.69 246.384 491.896 243.034 491.896 238.746V235.53C491.896 231.421 490.69 228.16 488.278 225.748C485.955 223.336 482.427 222.13 477.692 222.13ZM544.553 253.888C550.181 253.888 554.513 252.682 557.551 250.27C560.588 247.769 562.107 244.151 562.107 239.416C562.107 235.485 561.035 232.18 558.891 229.5C556.836 226.82 553.441 224.765 548.707 223.336L537.853 220.12C531.063 218.065 526.061 214.983 522.845 210.874C519.629 206.675 518.021 201.539 518.021 195.464C518.021 190.819 518.914 186.62 520.701 182.868C522.577 179.116 525.525 176.123 529.545 173.89C533.654 171.657 539.014 170.54 545.625 170.54C549.645 170.54 553.799 171.031 558.087 172.014C562.375 172.907 566.707 174.381 571.085 176.436L567.333 186.486C563.045 184.61 559.159 183.27 555.675 182.466C552.28 181.573 549.019 181.126 545.893 181.126C540.801 181.126 536.825 182.198 533.967 184.342C531.197 186.397 529.813 189.836 529.813 194.66C529.813 198.144 530.751 201.092 532.627 203.504C534.503 205.827 537.853 207.747 542.677 209.266L553.531 212.482C567.109 216.502 573.899 225.167 573.899 238.478C573.899 246.161 571.576 252.414 566.931 257.238C562.285 261.973 554.826 264.34 544.553 264.34C540.354 264.34 535.887 263.849 531.153 262.866C526.507 261.794 521.683 260.141 516.681 257.908L520.299 247.992C525.033 250.136 529.277 251.655 533.029 252.548C536.87 253.441 540.711 253.888 544.553 253.888Z" fill="#AB2B86"/>
<path d="M364.052 252.146V263H314.204V171.88H325.862V252.146H364.052Z" fill="#AB2B86"/>
</svg>
