<svg xmlns="http://www.w3.org/2000/svg" xmlns:xlink="http://www.w3.org/1999/xlink" xmlns:xodm="http://www.corel.com/coreldraw/odm/2003" xml:space="preserve" width="5.61529in" height="5.6092in" version="1.1" style="shape-rendering:geometricPrecision; text-rendering:geometricPrecision; image-rendering:optimizeQuality; fill-rule:evenodd; clip-rule:evenodd" viewBox="0 0 5615.28 5609.19">
 <defs>
  <style type="text/css">
   <![CDATA[
    .fil0 {fill:#15A5E4}
   ]]>
  </style>
 </defs>
 <g id="Layer_x0020_1">
  <metadata id="CorelCorpID_0Corel-Layer"/>
  <g id="_1861036529408">
   <path className="fil0" d="M187.75 5221c305.85,29.89 2265.95,13.66 2619.98,13.68l1970.95 -0.08c213.82,-0.06 444.36,14.56 648.86,-14.48 -2.79,240.37 20.78,201.18 -499.54,201.18 -1521.37,0 -3060.01,-8.24 -4579.04,0.19 -176.95,0.98 -157.74,-37.81 -161.21,-200.5zm713.63 -175.66c10.09,-62.75 239.82,-568.13 281.55,-662.69l283.04 -641.63c67.83,-8.03 105.1,-15.4 135.81,27.92l200.71 308.02c216.78,333.87 158.63,313.02 368.16,312.7 447.93,-0.71 895.89,0.47 1343.83,-0.01 121.02,-0.64 122.51,-40.97 173.42,-120.06 82.26,-127.8 274.23,-435.52 344.2,-527.15l209.04 1.97c30.11,38.8 74.58,141.38 85.91,192.58 -44.64,44.66 -199.52,99.79 -175.52,308.58 5.69,49.5 97.5,314.67 119.54,368.5 52.5,128.2 149.09,158.08 300.87,184.92 128.65,22.74 138.2,3.98 167.84,72.65 22.29,51.65 60.47,123.27 68.95,173.31l-3907.36 0.38zm4444.71 -2.01c-60.87,8.87 -262.6,4.61 -329.07,-0.42 -32.27,-81.57 -134.02,-355.86 -192.13,-386.63 -30.95,-16.39 -189.6,-42.73 -235.49,-47.8 -163.42,-18.07 -136.88,-30.28 -236.19,-334.3 -80.61,-246.78 269.92,-123.04 180.58,-340.85 -19.87,-48.44 -75.06,-153.14 -79.16,-191.88 208.98,-25.24 300.06,170.28 379.4,290.19 92.79,140.26 175.11,265.62 265.26,400.32 93.72,140.03 176.55,267.09 269.56,408.02 27.96,42.36 123.88,182 -22.74,203.35zm-5026.93 1.7c-101.49,0.15 -169.13,-55.19 -108.61,-151.2 38.87,-61.65 74.38,-111.61 119.63,-179.82l475.56 -718.52c147.37,-219.09 164.88,-267.76 452.28,-249.84l-566.78 1299.5 -372.08 -0.12zm3848.87 -1496.02c11.51,-50.46 921.44,-1424.38 1035.5,-1596.19 96.2,-144.91 -50.68,-252.37 -143.9,-123.33 -60.9,84.3 -117.71,181.35 -173.26,264.87 -232.43,349.47 -456.39,699.11 -692.79,1058.95 -235.11,357.86 -460.22,695.08 -687.49,1052.43l-1397.23 -1.24c-58.18,-81.99 -115.79,-176.22 -172.3,-262.51 -59.59,-91.02 -108.86,-165.49 -172.81,-264.89 -114.41,-177.83 -227.1,-351.86 -345.84,-529.56 -238.61,-357.12 -459.87,-713.76 -693.07,-1059.11 -58.68,-86.9 -107.43,-174.93 -173.31,-265.34 -82.94,-113.81 -244.43,-25.17 -135.37,135.56 104.28,153.68 1021.84,1546.93 1031.21,1590.29 -294.02,6.68 -478.57,-32.33 -654.58,145.09 -74.96,75.56 -562.3,832.44 -633.38,939.7 -184.38,278.23 -157.48,214.76 -158.63,627.2 -1,360.88 214.06,348.2 447.79,348.22l4728.29 0c231.11,-0.04 439.32,5.67 437.94,-348.22 -1.64,-421.04 25.18,-341.8 -163.25,-632.77l-470.96 -713.93c-254.11,-374.17 -251.92,-359.76 -812.56,-365.22z"/>
   <path className="fil0" d="M1800.81 753.42c23.56,-46.52 439.49,-252.78 496.23,-283.21 64.57,-34.63 482.49,-267.26 510.85,-267.33 20.35,-0.06 962.63,499.29 1005.03,538.78 -40.34,70.17 -347.93,118.2 -238.3,258.41 88.84,113.6 255.96,-79.5 355.45,-90.3l-1.06 1085.37 -512.94 280.46c-74.63,40.54 -464.59,259.92 -515.98,267.73l-0.69 -79.58c-0.47,-78.63 18.06,-254.48 -34.78,-295.93 -41.81,-32.8 -102.33,-18.67 -129.39,14.53 -36.38,44.64 -17.08,283.31 -21.2,360.18 -34.27,-4.44 -978.13,-509.21 -1028.61,-547.39 -0.2,-355.33 -6.38,-738.33 2.51,-1088.99 99.1,23.71 265.31,202 352.64,93.77 62.28,-77.19 -18.3,-131.79 -69.28,-158.76 -58.01,-30.67 -114.93,-65.94 -170.49,-87.75zm979.16 -750.39c-62.36,20.46 -362.13,191.1 -445.99,235.22 -146.13,76.88 -285.47,156.81 -440.33,237.05 -73.34,37.99 -140.15,76.1 -219.43,117.91 -72.76,38.37 -171.09,65.89 -177.29,158.7 -8.12,121.64 -8.31,1310.73 13.74,1346.79 28.43,46.5 763.07,426.81 868.34,485.2 493.81,273.85 390.43,255.25 682.36,94.18l880.02 -474.17c69.18,-36.37 170.95,-64.35 176.85,-158.04 7.89,-125.22 9.31,-1306.15 -14.15,-1346.68 -27.22,-47.01 -151.85,-100.25 -208.19,-130.53 -76.21,-40.96 -142.77,-77.35 -219.8,-117.74l-660.16 -355.89c-49.37,-27.42 -174.92,-112.01 -235.96,-91.98z"/>
   <path className="fil0" d="M3267.06 1158.6c-69.26,-164.51 -366,127.38 -459.17,127.15 -89.76,-0.22 -389.46,-290.52 -459.86,-127.5 -58.44,135.33 198.59,178.85 367.68,299.61 1.41,109.47 -39.4,314.39 91.97,313.59 132.64,-0.81 89.72,-205.13 92.63,-312.63 162.43,-120.28 425.3,-161.17 366.76,-300.22z"/>
  </g>
 </g>
</svg>