<svg xmlns="http://www.w3.org/2000/svg" xmlns:xlink="http://www.w3.org/1999/xlink" xmlns:xodm="http://www.corel.com/coreldraw/odm/2003" xml:space="preserve" width="6.04356in" height="6.01512in" version="1.1" style="shape-rendering:geometricPrecision; text-rendering:geometricPrecision; image-rendering:optimizeQuality; fill-rule:evenodd; clip-rule:evenodd" viewBox="0 0 5714.03 5687.14">
 <defs>
  <style type="text/css">
   <![CDATA[
    .fil0 {fill:#15A5E4}
   ]]>
  </style>
 </defs>
 <g id="Layer_x0020_1">
  <metadata id="CorelCorpID_0Corel-Layer"/>
  <g id="_1863927059808">
   <g>
    <path className="fil0" d="M4776.75 4767.77c-15.63,-172.26 15.29,-1283.02 -19.24,-1329.04 -17.95,-18.64 24.65,-5.2 -27.88,-15.88l-707.5 2.84c-24.92,7.49 -6.04,-3 -21.57,12.7l749.44 -2.52c14.84,134.47 -6.66,1258.79 4.88,1301.31 12.09,44.59 8.68,19.74 21.88,30.59z"/>
    <path className="fil0" d="M3698.25 4675.02c42.9,7.19 68.99,8.62 110.3,-5.65 36.97,-89.44 -7.71,-1123.83 14.31,-1337.13 -11.42,12.67 -3.6,-5.74 -14.33,18.02 -8.26,18.32 5.33,-32.37 -4.52,15.01l-2.25 1294.67c-69.92,3.32 -88.06,-9.41 -103.51,15.08z"/>
   </g>
   <g>
    <path className="fil0" d="M1908.39 1612.57c-62.38,-478.82 336.37,-990.79 857.18,-1032.41 892.02,-71.29 1350.63,953.01 810.13,1568.65 -527.62,600.96 -1551.42,353.33 -1667.31,-536.24zm1593.36 -1034.41l1167.15 0.05c22.83,44.76 31.86,175.46 163.71,303.85 76.91,74.89 177.43,127.86 306.1,158.96l-1.66 966.32c-94.76,45.35 -286.64,62.4 -404.51,298.22 -37.41,74.84 -52.46,147.16 -63.7,167.85 -364.67,11.72 -788.69,3.39 -1163.61,3.35 24.02,-34.03 58.66,-54.32 92.85,-82.77 543.13,-452 531.99,-1329.08 -45.64,-1770.1l-50.69 -45.72zm-1291.06 1894.82l-1165.2 3.5c-22.09,-42.37 -34.45,-115.6 -64.18,-171.72 -90.05,-170.01 -211.21,-242.66 -405.24,-294l-0.33 -969.51c164.53,-49.02 234.25,-78.71 329.64,-186.35 209.46,-236.32 31.29,-281.5 231.19,-281.5l1076.99 1.86 -181.24 161.85c-343.98,326.71 -407.99,940.25 -166.01,1350.25 78.95,133.78 142.73,203.88 246.53,299.75 27.01,24.95 78.92,57.18 97.85,85.88zm-1280.86 -2081.58c-120.15,30.03 -22.59,141.09 -139.62,308.28 -61,87.14 -149.4,145.85 -292.05,160.55 -83.37,8.59 -111.19,27.68 -114.4,114.06l0.75 1124.73c14.67,139.68 142.45,54.44 301.74,156.47 248.92,159.44 104.65,387.39 257.83,411.68 12.72,2.01 3782.3,14.64 3843.77,-3.77 67.04,-20.08 59.81,-78.57 72.8,-152.65 9.53,-54.33 31.93,-112.08 64.2,-156.61 180.64,-249.33 398.08,-69.02 406.12,-275.27l-1.71 -1124.55c-16.11,-148.34 -139.34,-46 -303.03,-155.04 -259.13,-172.61 -92.09,-388.78 -258.04,-410.61 -0.19,-0.02 -3783.04,-11.1 -3838.36,2.72z"/>
    <path className="fil0" d="M196.54 2786.62l-2.5 -2490.47c9.83,-138.57 181.65,-100.64 395.99,-100.64l4746.82 -0.12c246.71,-0.71 183.61,47.33 183.6,567l0 1497.93c0,155.84 9.74,344.83 -0.19,496.56 -9.24,141.2 -159.91,102.25 -395.97,102.4l-4746.82 0.1c-87.41,0.31 -164.62,8.03 -180.93,-72.76zm42.43 -2774.82c-154.14,31.34 -235.29,136.57 -235.93,315.24l0.17 2186.31c0,184.11 -29.13,345.22 88.2,457.92 111.06,106.68 285.2,78.39 468.26,78.39l2732.7 -0.04c159.28,-0.04 2089.43,13.45 2191.56,-6.32 144.78,-28.03 227.32,-142.52 227.5,-317.3l-0.3 -2186.27c-0,-194.31 28,-343.9 -90.22,-456.21 -112.5,-106.87 -281.21,-78.46 -466.26,-78.49l-4372.32 0c-130.2,0 -436.35,-14.99 -543.36,6.77z"/>
    <path className="fil0" d="M4000.56 3438.39c15.53,-15.69 -3.34,-5.21 21.57,-12.7l707.5 -2.84c52.53,10.68 9.93,-2.76 27.88,15.88 34.53,46.02 3.6,1156.78 19.24,1329.04 10.81,60.03 71.31,83.25 145.18,93.92 -22.74,37.22 -100.7,118.25 -136.98,156.36 -74.93,78.72 -363.55,430.91 -413.41,452.13l-263.77 -300.97c-63.93,-68.77 -219.24,-259.32 -269.8,-294.7 39.07,-37.55 80.42,-8.17 131.58,-74.83 36.62,-47.72 29.38,-103.32 29,-171 -1.62,-282.75 -15.24,-990.67 2.01,-1190.3zm-177.7 -106.15c-22.01,213.3 22.67,1247.69 -14.31,1337.13 -41.3,14.27 -67.39,12.84 -110.3,5.65 -62.44,3.74 -114.83,59.66 -114.03,135.85 0.76,72.6 56.29,117.95 88.86,155.6 115.46,133.43 369.24,402.08 467.24,524.6 87.87,109.86 173.04,229.12 292.43,187.62 48.55,-16.88 414.68,-442.81 478.19,-514.59 42.22,-47.72 81.46,-96.24 117.6,-135.36 69.41,-75.12 212.88,-193.83 115.22,-308.44 -48.51,-56.94 -99.85,-50.71 -189.43,-53.06 -22.05,-165.11 -3.16,-484.54 -3.16,-666.09 0,-630.24 86.5,-760.57 -231.72,-759.61l-668 0.02c-107.69,-0.26 -213.61,0.42 -228.6,90.68z"/>
    <path className="fil0" d="M2486.78 3431.82l739.84 0.21c23.3,25.1 15.51,60.29 15.28,103.54 -0.67,124.03 14.02,721.92 -10.64,747.51 -21.31,22.12 -348.22,11.32 -374.1,11.33l-293.61 -0.12c-14.78,-0.03 -36.73,0.73 -50.78,-0.76l-31.29 -8.53c-20.37,-20.3 -8.64,-546.9 -8.67,-648.21l13.97 -204.97zm-88.67 -185.83c-157.47,37.29 -114.45,270 -114.45,481.9 0,813.88 -83.33,749.03 441.94,749.06 119.83,0.01 502.91,15.69 593.22,-4.69 161.31,-36.4 111.91,-310.91 111.91,-481.22 0,-817.74 82.65,-749.47 -441.98,-749.48 -115.14,0 -510.65,-14.51 -590.63,4.43z"/>
    <path className="fil0" d="M2762.74 2189.47c3.97,85.03 -11.77,178.26 75.53,193.09 103.01,17.51 110.01,-71.1 111.46,-153.68 1.05,-59.66 7.39,-47.26 59.53,-70.1 218.16,-95.54 297.43,-395.57 131.71,-586.96 -143.07,-165.24 -264.41,-108.38 -362.82,-154.2 -128.47,-59.83 -153.75,-248.15 -30.2,-329.15 91.87,-60.23 270.76,-51.5 299.51,149.84 24.57,172.05 259.65,125.22 168.6,-116.46 -51.58,-136.93 -130.76,-197.9 -265.98,-247.98 2.2,-97.69 13.29,-201.13 -92.93,-200.92 -107.18,0.22 -90.25,99.15 -94.41,198.69 -114.04,53.54 -187.95,87.09 -242.28,203.12 -55.78,119.15 -54.41,244.74 11.73,357.26 50.61,86.09 134.95,160.56 259.04,184.33 55.02,10.54 249.45,-1.43 256.03,188.54 4.25,122.83 -111.13,229.94 -247.47,189.27 -170.11,-50.75 -95.82,-218.03 -182.83,-263.73 -168.69,-88.6 -201.07,226.13 4.4,380.9 45.41,34.2 101.98,47.82 141.36,78.15z"/>
    <path className="fil0" d="M1712.66 3444.44l3.51 448.39c-19.34,32.85 -304.52,17.33 -377.18,17.34 -123.38,0.01 -261.42,5.55 -383.1,-3.26 -10.68,-50.9 -10.83,-434.14 3.06,-476.8 153.16,-11.61 483.87,-1.12 673.71,-3.2 91.76,-1.01 70.96,-0.61 80,17.53zm-768.39 652.59l718.6 -0.12c296.04,-0.01 238.61,-60.02 238.56,-642.29 -0.02,-193.54 -38.49,-213.1 -208.2,-213.07l-698.36 0.01c-111.13,0.01 -187.39,3.16 -222.4,91.22 -19.32,48.6 -9.22,239.19 -9.22,304.01 0,222.53 -64.23,460.49 181.01,460.24z"/>
   </g>
   <path className="fil0" d="M1716.17 3892.83l-745.61 -3.81 -6.04 -444.58 748.14 0c-9.04,-18.14 11.76,-18.54 -80,-17.53 -189.84,2.08 -520.54,-8.41 -673.71,3.2 -13.89,42.66 -13.74,425.91 -3.06,476.8 121.68,8.82 259.72,3.28 383.1,3.26 72.66,-0.01 357.84,15.51 377.18,-17.34z"/>
   <path className="fil0" d="M3226.62 3432.03l1.6 843.22 -744.53 3.42 3.09 -846.85 -13.97 204.97c0.02,101.31 -11.71,627.91 8.67,648.21l31.29 8.53c14.05,1.49 36,0.73 50.78,0.76l293.61 0.12c25.88,-0 352.79,10.79 374.1,-11.33 24.66,-25.59 9.97,-623.48 10.64,-747.51 0.23,-43.26 8.02,-78.45 -15.28,-103.54z"/>
  </g>
 </g>
</svg>